<mxfile host="Electron" modified="2023-12-18T07:32:56.458Z" agent="Mozilla/5.0 (Windows NT 10.0; Win64; x64) AppleWebKit/537.36 (KHTML, like Gecko) draw.io/21.2.8 Chrome/112.0.5615.165 Electron/24.2.0 Safari/537.36" etag="b_BG1EXfcP8LXbOxYUSb" version="21.2.8" type="device">
  <diagram name="Page-1" id="wdU2vlvLfLhHSGHgqa0V">
    <mxGraphModel dx="4958" dy="868" grid="1" gridSize="10" guides="1" tooltips="1" connect="1" arrows="1" fold="1" page="1" pageScale="1" pageWidth="3300" pageHeight="4681" background="#999999" math="0" shadow="0">
      <root>
        <mxCell id="0" />
        <mxCell id="1" parent="0" />
        <mxCell id="uinDh51fRpMenqYTs6G2-5" value="" style="rounded=0;whiteSpace=wrap;html=1;fillColor=#1e1e1e;" parent="1" vertex="1">
          <mxGeometry x="2120" y="1460" width="880" height="610" as="geometry" />
        </mxCell>
        <mxCell id="eCz0pDOJpor3ejvm-4k_-3" value="" style="rounded=0;whiteSpace=wrap;html=1;fillColor=#1e1e1e;" parent="1" vertex="1">
          <mxGeometry x="2230" y="230" width="930" height="610" as="geometry" />
        </mxCell>
        <mxCell id="08-NsosBbDU-mmR43x8U-6" value="&lt;font style=&quot;font-size: 18px;&quot; color=&quot;#ffffcc&quot;&gt;CMakeLists.txt&lt;/font&gt;" style="text;html=1;strokeColor=none;fillColor=none;align=center;verticalAlign=middle;whiteSpace=wrap;rounded=0;" parent="1" vertex="1">
          <mxGeometry x="700" y="140" width="150" height="30" as="geometry" />
        </mxCell>
        <mxCell id="08-NsosBbDU-mmR43x8U-7" value="" style="rounded=0;whiteSpace=wrap;html=1;fillColor=#1e1e1e;" parent="1" vertex="1">
          <mxGeometry x="350" y="180" width="1150" height="320" as="geometry" />
        </mxCell>
        <mxCell id="08-NsosBbDU-mmR43x8U-31" value="&lt;span style=&quot;font-size: 70px;&quot;&gt;Testing: Google Test&lt;/span&gt;" style="text;html=1;strokeColor=none;fillColor=none;align=center;verticalAlign=middle;whiteSpace=wrap;rounded=0;" parent="1" vertex="1">
          <mxGeometry x="-670" y="77.5" width="1077" height="382.5" as="geometry" />
        </mxCell>
        <mxCell id="MFZtFx-qUxBc-n4n6ePM-2" value="&lt;font style=&quot;font-size: 33px;&quot;&gt;Getting the dependencies&lt;/font&gt;" style="rounded=0;whiteSpace=wrap;html=1;" parent="1" vertex="1">
          <mxGeometry x="640" y="110" width="510" height="60" as="geometry" />
        </mxCell>
        <mxCell id="MFZtFx-qUxBc-n4n6ePM-10" value="&lt;font style=&quot;font-size: 33px;&quot;&gt;Test Files&lt;/font&gt;" style="rounded=0;whiteSpace=wrap;html=1;" parent="1" vertex="1">
          <mxGeometry x="2250" y="140" width="620" height="60" as="geometry" />
        </mxCell>
        <mxCell id="uinDh51fRpMenqYTs6G2-1" value="&lt;div style=&quot;color: rgb(212, 212, 212); background-color: rgb(30, 30, 30); font-family: Consolas, &amp;quot;Courier New&amp;quot;, monospace; font-weight: normal; font-size: 24px; line-height: 32px;&quot;&gt;&lt;div&gt;&lt;span style=&quot;color: #569cd6;&quot;&gt;include&lt;/span&gt;&lt;span style=&quot;color: #d4d4d4;&quot;&gt;(FetchContent)&lt;/span&gt;&lt;/div&gt;&lt;div&gt;&lt;span style=&quot;color: #d4d4d4;&quot;&gt;FetchContent_Declare(&lt;/span&gt;&lt;/div&gt;&lt;div&gt;&lt;span style=&quot;color: #d4d4d4;&quot;&gt;&amp;nbsp; googletest&lt;/span&gt;&lt;/div&gt;&lt;div&gt;&lt;span style=&quot;color: #d4d4d4;&quot;&gt;&amp;nbsp; GIT_REPOSITORY https://github.com/google/googletest.git&lt;/span&gt;&lt;/div&gt;&lt;div&gt;&lt;span style=&quot;color: #d4d4d4;&quot;&gt;&amp;nbsp; GIT_TAG v1.14.0&lt;/span&gt;&lt;/div&gt;&lt;div&gt;&lt;span style=&quot;color: #d4d4d4;&quot;&gt;)&lt;/span&gt;&lt;/div&gt;&lt;div&gt;&lt;span style=&quot;color: #6a9955;&quot;&gt;# For Windows: Prevent overriding the parent project&#39;s compiler/linker settings&lt;/span&gt;&lt;/div&gt;&lt;div&gt;&lt;span style=&quot;color: #569cd6;&quot;&gt;set&lt;/span&gt;&lt;span style=&quot;color: #d4d4d4;&quot;&gt;(gtest_force_shared_crt &lt;/span&gt;&lt;span style=&quot;color: #569cd6;&quot;&gt;ON&lt;/span&gt;&lt;span style=&quot;color: #d4d4d4;&quot;&gt; &lt;/span&gt;&lt;span style=&quot;color: #569cd6;&quot;&gt;CACHE&lt;/span&gt;&lt;span style=&quot;color: #d4d4d4;&quot;&gt; &lt;/span&gt;&lt;span style=&quot;color: #569cd6;&quot;&gt;BOOL&lt;/span&gt;&lt;span style=&quot;color: #d4d4d4;&quot;&gt; &lt;/span&gt;&lt;span style=&quot;color: #ce9178;&quot;&gt;&quot;&quot;&lt;/span&gt;&lt;span style=&quot;color: #d4d4d4;&quot;&gt; FORCE)&lt;/span&gt;&lt;/div&gt;&lt;div&gt;&lt;span style=&quot;color: #d4d4d4;&quot;&gt;FetchContent_MakeAvailable(googletest)&lt;/span&gt;&lt;/div&gt;&lt;/div&gt;" style="text;whiteSpace=wrap;html=1;" parent="1" vertex="1">
          <mxGeometry x="400" y="190" width="1070" height="300" as="geometry" />
        </mxCell>
        <mxCell id="uinDh51fRpMenqYTs6G2-2" value="&lt;div style=&quot;color: rgb(212, 212, 212); background-color: rgb(30, 30, 30); font-family: Consolas, &amp;quot;Courier New&amp;quot;, monospace; font-weight: normal; font-size: 24px; line-height: 32px;&quot;&gt;&lt;div&gt;&lt;span style=&quot;color: #569cd6;&quot;&gt;#include &lt;/span&gt;&lt;span style=&quot;color: #ce9178;&quot;&gt;&amp;lt;gtest/gtest.h&amp;gt;&lt;/span&gt;&lt;/div&gt;&lt;div&gt;&lt;span style=&quot;color: #569cd6;&quot;&gt;#include &lt;/span&gt;&lt;span style=&quot;color: #ce9178;&quot;&gt;&quot;calculator.h&quot;&lt;/span&gt;&lt;/div&gt;&lt;br&gt;&lt;div&gt;&lt;span style=&quot;color: #d4d4d4;&quot;&gt;TEST(CalculatorTest, Add) {&lt;/span&gt;&lt;/div&gt;&lt;div&gt;&lt;span style=&quot;color: #d4d4d4;&quot;&gt;&amp;nbsp; &amp;nbsp; Calculator calc;&lt;/span&gt;&lt;/div&gt;&lt;div&gt;&lt;span style=&quot;color: #d4d4d4;&quot;&gt;&amp;nbsp; &amp;nbsp; EXPECT_EQ(calc.add(&lt;/span&gt;&lt;span style=&quot;color: #b5cea8;&quot;&gt;2&lt;/span&gt;&lt;span style=&quot;color: #d4d4d4;&quot;&gt;, &lt;/span&gt;&lt;span style=&quot;color: #b5cea8;&quot;&gt;3&lt;/span&gt;&lt;span style=&quot;color: #d4d4d4;&quot;&gt;), &lt;/span&gt;&lt;span style=&quot;color: #b5cea8;&quot;&gt;5&lt;/span&gt;&lt;span style=&quot;color: #d4d4d4;&quot;&gt;);&lt;/span&gt;&lt;/div&gt;&lt;div&gt;&lt;span style=&quot;color: #d4d4d4;&quot;&gt;&amp;nbsp; &amp;nbsp; EXPECT_EQ(calc.add(-&lt;/span&gt;&lt;span style=&quot;color: #b5cea8;&quot;&gt;2&lt;/span&gt;&lt;span style=&quot;color: #d4d4d4;&quot;&gt;, &lt;/span&gt;&lt;span style=&quot;color: #b5cea8;&quot;&gt;3&lt;/span&gt;&lt;span style=&quot;color: #d4d4d4;&quot;&gt;), &lt;/span&gt;&lt;span style=&quot;color: #b5cea8;&quot;&gt;1&lt;/span&gt;&lt;span style=&quot;color: #d4d4d4;&quot;&gt;);&lt;/span&gt;&lt;/div&gt;&lt;div&gt;&lt;span style=&quot;color: #d4d4d4;&quot;&gt;&amp;nbsp; &amp;nbsp; EXPECT_EQ(calc.add(&lt;/span&gt;&lt;span style=&quot;color: #b5cea8;&quot;&gt;0&lt;/span&gt;&lt;span style=&quot;color: #d4d4d4;&quot;&gt;, &lt;/span&gt;&lt;span style=&quot;color: #b5cea8;&quot;&gt;0&lt;/span&gt;&lt;span style=&quot;color: #d4d4d4;&quot;&gt;), &lt;/span&gt;&lt;span style=&quot;color: #b5cea8;&quot;&gt;0&lt;/span&gt;&lt;span style=&quot;color: #d4d4d4;&quot;&gt;);&lt;/span&gt;&lt;/div&gt;&lt;div&gt;&lt;span style=&quot;color: #d4d4d4;&quot;&gt;}&lt;/span&gt;&lt;/div&gt;&lt;br&gt;&lt;div&gt;&lt;span style=&quot;color: #d4d4d4;&quot;&gt;TEST(CalculatorTest, Sub) {&lt;/span&gt;&lt;/div&gt;&lt;div&gt;&lt;span style=&quot;color: #d4d4d4;&quot;&gt;&amp;nbsp; &amp;nbsp; Calculator calc;&lt;/span&gt;&lt;/div&gt;&lt;div&gt;&lt;span style=&quot;color: #d4d4d4;&quot;&gt;&amp;nbsp; &amp;nbsp; EXPECT_EQ(calc.sub(&lt;/span&gt;&lt;span style=&quot;color: #b5cea8;&quot;&gt;5&lt;/span&gt;&lt;span style=&quot;color: #d4d4d4;&quot;&gt;, &lt;/span&gt;&lt;span style=&quot;color: #b5cea8;&quot;&gt;3&lt;/span&gt;&lt;span style=&quot;color: #d4d4d4;&quot;&gt;), &lt;/span&gt;&lt;span style=&quot;color: #b5cea8;&quot;&gt;2&lt;/span&gt;&lt;span style=&quot;color: #d4d4d4;&quot;&gt;);&lt;/span&gt;&lt;/div&gt;&lt;div&gt;&lt;span style=&quot;color: #d4d4d4;&quot;&gt;&amp;nbsp; &amp;nbsp; EXPECT_EQ(calc.sub(&lt;/span&gt;&lt;span style=&quot;color: #b5cea8;&quot;&gt;3&lt;/span&gt;&lt;span style=&quot;color: #d4d4d4;&quot;&gt;, &lt;/span&gt;&lt;span style=&quot;color: #b5cea8;&quot;&gt;5&lt;/span&gt;&lt;span style=&quot;color: #d4d4d4;&quot;&gt;), -&lt;/span&gt;&lt;span style=&quot;color: #b5cea8;&quot;&gt;2&lt;/span&gt;&lt;span style=&quot;color: #d4d4d4;&quot;&gt;);&lt;/span&gt;&lt;/div&gt;&lt;div&gt;&lt;span style=&quot;color: #d4d4d4;&quot;&gt;&amp;nbsp; &amp;nbsp; EXPECT_EQ(calc.sub(&lt;/span&gt;&lt;span style=&quot;color: #b5cea8;&quot;&gt;0&lt;/span&gt;&lt;span style=&quot;color: #d4d4d4;&quot;&gt;, &lt;/span&gt;&lt;span style=&quot;color: #b5cea8;&quot;&gt;0&lt;/span&gt;&lt;span style=&quot;color: #d4d4d4;&quot;&gt;), &lt;/span&gt;&lt;span style=&quot;color: #b5cea8;&quot;&gt;0&lt;/span&gt;&lt;span style=&quot;color: #d4d4d4;&quot;&gt;);&lt;/span&gt;&lt;/div&gt;&lt;div&gt;&lt;span style=&quot;color: #d4d4d4;&quot;&gt;}&lt;/span&gt;&lt;/div&gt;&lt;/div&gt;" style="text;whiteSpace=wrap;html=1;" parent="1" vertex="1">
          <mxGeometry x="2410" y="265" width="460" height="540" as="geometry" />
        </mxCell>
        <mxCell id="uinDh51fRpMenqYTs6G2-3" value="" style="shape=image;verticalLabelPosition=bottom;labelBackgroundColor=default;verticalAlign=top;aspect=fixed;imageAspect=0;image=data:image/png,iVBORw0KGgoAAAANSUhEUgAABIEAAAHuCAYAAAAIrBzpAAAAAXNSR0IArs4c6QAAAARnQU1BAACxjwv8YQUAAAAJcEhZcwAADsMAAA7DAcdvqGQAAN8nSURBVHhe7N0LYExn3j/wL6kgQyQhookQIjaklZRGS2hD91VN0Fbarbh7G3SFvtq/Bn1Za1kkvGrdtiRdtxLdlnYRVbsuXZeWlCZaZBFCUHFJIgwSkv7Pc84zk5nJTDK5uCXfT3d2znnO/czEZH75Pb+nlp9f219BRERW1atXV04R3V937uQjP/+OnCN6tNStW09OERER0eOstnwmIiIiIiIiIqJqjEEgIiIiIiIiIqIagEEgIiIiIiIiIqIagEEgIiIiIiIiIqIagEEgIiIiIiIiIqIagEEgIiIiIiIiIqIagEEgIiIiIiIiIqIagEEgIiIiIiIiIqIagEEgIiIiIiIiIqIagEEgIqL7wakD6j07CK4d28kGS3XwRMdhaPRsCByd6ss2ooqog9qNn0PDHmPg/lQT2WapCXQvj0HjoOdQp14d2UZERERENY1D48aN/yiniYjIwhNPPCGnyqd+WAyaP/UknFo8jTr3TkH/S65cIogA0Dg0D/FDQ+92aNQkH9n/OS2XUU11714hCgvvybnyaIsmUePQ2u9JNGobDGQdxs1rt+QyoQmc+kzGbzq1gmvbTmhQJw1X06/KZUT2qei/hURERPRoYSYQEdF9VQcNQ96Be4CbnFf+4Q14B81DvPCofaUKjfw93u4XJOcqKbAf3v792+gXKOfpwajdCJ5vTIa7lyHbpw4cX56M3wQ1esQ+8OOw4+xPSIySs5U0cv1POPtTIkbKeZJ++ype9ZHTlnyUZb+V00RERFRj1PLza/urnLZTb0xY2het5RxwGpvGHMVTS1/EtUWTseK41tp22GyMb/otxsyF+frXk7Fg8kqcUCZ7fzAbT24p3kbTFiNm/w+CG8lZ5CHZZL+9P1iCfq20afNl1s7r/3BanMdzzrJNaf1HNOZ9I2eIiMpQr15dOVU+9V/9P3i1kDPCr7eRs30+cvAWvHq1Qd1asl049zVO/eNfcsaWUAz4fTu4yjkoezr+1/XYjSD0e7sLvHAB332yCSlyaTFtO92F7/DJppJLTYkgkK++7PXM9BiA3ze7hL8m7pYN5SACRV2dkK5eh33sPsdy7vuFF15ATk4OfvrpJ9ny4N25k4/8/Dtyrjz84T5uAloYPzcVd37BmcTZuOk3Gf7dnoRpBzB98jykfZMm52yISsRPU7vC+OmZtx8zn45EvBq8eQtt0j9Dy54xcqEJud3lv7fESx/INqvEfl7B5RlPIzJBNtlBBHvexUI8PSBettgvbudZvHJ5Zjm2HYnEn6ag6bayrkUxdwfO9r4s79GjoiNmbF+Pt+ruwsxho7E6QzYLPkOxbNUU9Mj/DAN6TcVh2VyaunXrySkiIiJ6nFXsD4MikDMmGmPUx/9hm/LfvH9cRfDQ4WgrlrcbjhH+/8GCudvU1U3XX5D2G4z/oLfWXoIWAGqb9he5b+Wx6D9oO242RhjLaojAj1xmekyhxHlpROBH21cyGr/6/2Dr6ERE90ORCLXXqg/XXv8LH0MASGkrUpfaQQRafq/8I5j2V/z1r/Kx/xaaGbN2CpT/vODfQ86aCOrnaxI4IltEAMjVtRrcKeVNpb6v6j2JVsMWIsAQADK020HNqpn6FH6e0RItW8rHtqYYMFeuoHwO57m/YjWLJ26gSeCISnjttdcQGxuLdu1s1QqzrfzbHsbUUTOxCz0w5W8LizOCfF7Fwr9NUVp3YeYo+wJAREREVH1UXXb4N/+HTdnB6Pcy0LtPMK7t1rJ9LJ04+B9cl9MlvNwXwUjGilUmWx5ficki2NPHSujmm6M43aixSfZPGY7vx4nrTfBk+X/3IiKqoAxc2X4K+WogSPlHVw0Aiayg3bihLi9LKAb463Bh/1+xfpdsElI3Yb1JNsyVKzlwbRYq5wxC4e+lx4ULBXJeI7Jpfv97+Xi7H6x2AFMDT7/HAENgSe3eZdhugLLnMqjrF69neky1y5nYf1cvOMIV7Qxt1tYzEhlPv0c7F8DRq4s8B5HlZHmOb6PfCOv7Ls3FixfVZy8vL/X5sXXjAE7v/QV3xbTyCa9+yIusoG8O4LaYLktUIt7tchmftbTI0PngJZNsmMv4+Sjw1G8tOl8p277ivh/70+W8SmT8nMVZ+fhpvfUOWyJL5+zZHcraGjUQZdhup6HVNnV943qmxxRdzkRGz1m85Qs4d5lichzL9dRGSSybgq7OQJvfKctFVzOR5WS6nsj+Ufb1D3Hs37VRdt4VU5R97TAGyx4BGasxethM7HLojbkiENRBBIDmoreDlewgIiIiqhEqFgRqFIzxS5dgqXjMLs7E2bZFZNosQT9sttnlSgSIcNl6AdS2zZrgetr+ksGjc9dw3a1ZccaPwcsBaH3mqDHjx9Z5GbXrqrT9B/vMup8R0eOhC8YtWIGVC8YqUwaltC1+Dy/Jloft3om/4sKuDGglf+/i+q75uHbCrq/kQI9mcC24gnOpct6Ws2m44ORrVoNHzQLKvYRzcl4TimY4LjOKvsMFeKGTZZBEBFPMAk+hGNDVHVeUeXW7NOWfU1vBIyuC+r2NdsZj/lXryrVrPf66/wIK1G5tWpvV9YxSsOmTv+J4LlBw4TtluejmtRvr03Lg2lo7l9D2XsCFQ9i0ouS+y3Lt2jXcuXPn8Q8CKW7v/hPSkq9rmT9F13Eu8U/I1mJcZRr526fgnH4IVjp6mckc8DUudxlgDNoIIgsIR3ciU86r5nYC/i6ziWbsV3483y2RQSQCOG+578fMli9px527A1MCflbmte0+w1s2g0cliYDPW8XHVINZ8Yh8WtlPOpD33UylTRzH2npyF6oYvNRyJvbnAafEOqKbV0IkFn4HdB0orlrZvncbZdlLeHXA02j591NalzllX7a6jolMnrCwMLi7u+ODDz7AiBEj1PaZM2fib3/7m/qYMGGC2iaWGdr+7//+DyNHjrS6rV3UQNAHyu9KvbHwy4XK/2/DBwwAERER1ViV7w4m6/uUyiQ4IwJEk00zfcrNGcHjZKCnw1GMMXQ5E2ycV+tX5fpDgRX2nC8RURUrOvoxzq2Yj9MrZuHK0WzZaqdbeVZq/VhKwbkrgFd7Q+5NEFq4AxeOWVbE2Y31xvo9YhvzLCGgBQZ09YI+7RNskoEnLZiUbpzHrkvIcXSCi5wtS8oNPeDkXGbQyN71zOxaj+O3vODfrx98nS7gkB0BH1suXLiAevXqoXHjxrLlcXUXBd9MReqiPyHlL1Nx5YKaF2S3vMsn5VRpYnAovQ1eMQZn4tDJ9xS+tqy3Y5pBlLATP+fJaYPf7sAUkXlkrKUjgyvbimvrxBw6BeemfnKuLPHIVH4OmnqXFTSydz1z8QMWYr/oCrd+ALpe+azsWkEmvvrqK2zduhVXrlzB3LlzsWLFCjUAlJ6ejv/+7/9W20SQRwR8/P39sWnTJrX9//2//4f4+PgS2xIRERFVRNV1B0NbjBgajGv/iMYm9MWEl2WzYBqcMQ3aWDhx6SoaNbXSuatFYzTKviSDN4aaQJtxutWLJrWCbNNqAv0FydC6qxHR4+g7LBo/AsPHL1amDEppG/sRdsiWR8NdFN28oDwsvwXbwc7ASMqmdOS4NNO6YPXwh9ctk8CNCZFxY+hy1cXLUbZqHL284Jp73LzrmeDSzriNqE/kCh2c7R35a9d6fHfFHV3EtqVlENm7noXdxy5A5+WOKz9YK4xtPxEEKiwsrAZBIOEWiq6fQ6HedKh4+9gbcIlZtx8I6AkRRhm5/hU0/W69lQwirSuW1uVK615VzBldu2jZNJbbqV2wDF21RFcrd2/1OPaI6TkTPweIbl+2u58J9q5nLh6R2y4r5w18Zq0wdjmI2j7169dH9+7d1YwfkeEjgkD37t3D3bt30atXL3TpUpzjWGFqEei5agbQu6+/q2YEzV21DENtjRpGRERE1VrVBYFEPZ9srRuY1i2sAgWYv9mMZLe+mD3MpCNXu+GY/WoTJG+xDB5twzxRNNq0MHSpTmDF5M0AC0MT0eNEzbpxRwu7Ai67kXZBB99+oejXWmclC0gLAHXRpRu7XH1nUS+o4MJxXHBqV6KOjtYFS3YHUx/FmUL2SNn0iXY8EeSJtF1RyN71TIluYPpcPbyetT9wZEteXh6aNWsm52qe+H/9jDzfTmbdvGxKiMTXV7piwNw4DOhyuWQWkBoA0kbX0rpcad2riuVh/9/3o+nvLOvxKO2mRanFo1yjbmndv8TxRJDHdo0ee9czJTKVmuJUelO8ZUetorKIgI8h48fwEFk+U6ZMwZo1azBkyBC1O1hFCkmrDKOAFW7DB//9Lv5x5B94978/wLbCHpjCQBAREVGNVPmaQEtnY8TLIlADbDJk+RxfiRUHmqCfzVHADEy6dimPCS+LQM1fcML/f4xtS8c1xrdjLIeRl8RxTEcbszyvEr8ziVHMgH6zh8t5IqL749c7t3FPPkRN6JJuo8hkHdtEYAfw6vq2Wb0fUbdngJWCxylnRZ+wdvCC9TpCLjpHFOhz5ZzoMmaeCQTkYtMnx6H36mIMBGn77GR+/Aoqf9cwrSC0sfizpR4D0M7pAtIS09T6RtZGSCvN008/rQ4Pb/C4FoguunULBfJh9f1WeAt35fK7+bLNGhHYSW+Dt0yKNKvm7rAaJBFdtdr8TgwZb62OkB+aOufh8n/kbFRPPGU5dNh/IvH03y+j61RDICgeO48CXf8n0e7MH9sq0DVMLf5sce0mRq5/F12vfI2Xen6NU77WR0iz1/Hjx9WMn2effVa2mPvuu++waNEiNVD0m9/8RraWR0fMWC5HARMBIEMNoAwRCJKjhi2foaxFRERENUktP7+21r+fEBER6tWrK6ceMjGalr/JEOYFF/DdJ6L7kwiSdAJ+KM7MESNsNbtUPJqYyP7phEOyQLIYUUt05xIKkJML6PTaMrGdr/47bT1RHFqMsJV7HH8VNYQsj2+rXSGyhj4520LZ3gnpf12PXJF9ZOx2Joo1i6LOGnFMMeKX2OaQcpYl1xPX1wVOp+X1GM5LLN9/C75qwWp57eqy4nnTfdsqDi2CQGJo+H//+9+yBejcubP6fPDgQfX5QblzJx/5+Xfk3MMlijVP6WISsUn/DC3V7k9i1Czl3WQo4qxm+7wL/KW4sLIY6avTIVkgWYygJbpzCXmncApNcVldV+znFVyeoW1nOJ4owiy2E/sQo3kZGNpLnJdCLFvvrbQ3/Vo5x5Nq9pGx25nxvBUiwDNVDGF/Cp+1XA9va+up6zTF1yZFqtXzF0WftzXFlN9B2dZ0mWFey3oS+zOcqzUioycqKkp9z+3Zswfff/+9cV4Qxcl37typdgMztB07dgzz5s0rsa1ddYF++ypePfWP4gCQKR9lWRtl2b/kfBnq1q0np4iIiOhxxiAQEVEpHpkgED0wIgvI19cXR48eVUcNe1AepSAQkSUGgYiIiKoHBoGIiErBIBA9KAwC0aOMQSAiIqLqoQpHByMiIiIiIiIiokcVg0BERERERERERDUAg0BERERERERERDUAg0BERERERERERDUAg0BERERERERERDUAg0BERERERERERDUAg0BERERERERERDUAg0BERERERERERDUAg0BERERERERERDUAg0BERERERERERDVALT+/tr/KaSIispCff0dOERERERERPd6YCUREREREREREVAMwCEREREREREREVAMwCEREREREREREVAMwCEREREREREREVAMwCEREVNM5NkG9dr+De/jv4GjrU8Hrd3jy5d9B591ENhARERER0eOGQSAiomrBH2/+v8kYFlxPzpdDwEgERPRCi2d6wX/I71DH8pOh6e/QKrIXPIOV5cNGoqFsfpg6jpiBueP7yLlK6vg2Zsydgbc7ynkiIiIiomqq/EPEd49Bwpgg6OSskLF1ICZjFhLDfGSLRm1fI6ZCMHF5NILkN4fi9kGYnRgO41Y3UrB4VBz2KZOD56xDeEutGdAjZelIxO6Rs0RED0hVDBHfZ/xcPHc9EVNXHJYt5dURb/8xEs6HP8BHm2STFfWChyGmf0uc3RiHVcnlOO9nJqNTuK+cAe6e/gpH121BoZjR9UGL378Gd2NsKR0nZs7GDTlni7jmF73kjOLiHu3cRfAmsj2QljgVn1i5Hep2LmlI/OMnKO1uqftpdAAfLNgiW+zRB+/N9cPJDz5CebZSiUBRpDMOlGfbfu9hbse8Mq+lQvsmIiIiIqoAG5lATnBxc5LT1ukPLUFk5ED1oQV0NCLAI9qSzgI+YbMwWGkbPEcEgDKQZNGO7l7IletHbs0AGgZhxIQQZUEIvK4myf0nIQM6BA2JUVqJiMiWO8mrELfxLFr2ew+RFckIkuq0fg1tI3rAQdcDzd82DQDZQwRa5uJFfIsPPvhAPhKR1/ptGBJt7ugB/xesZPF0fBvPmQSOiIiIiIioajk0btz4j3JacsIL42ZhQt8ncXH7IfwiW41ahqBfcDPgl2Rs2p8pGxWBL+ENPxfkntyAHUdEPKc3OnvqcOuyM1r8V1u4nN2Haf/6CUee7KSs5wNHJ2W9zfuwT1lX1agTXjHuV2nf/5Nc4IxnX+6MZriEg8r6JkckIrrvCgvvyamKefuPc/FsY+AJ96fRq9dTqPvP73FCaReZLO8PClPaeqFXQF3883vRKha8jRnvD0SYaFfXb4LwuX3QylH5d7Wl0hbSAv/c/aO2rhX3LqbiwE1vvBL+Crz1P+Dni3ac/5Pd4dnWTZ0sKgJq1QLquHdA0+c6oKEMABnagRxc+/deFKitJfUZPxJ+5xMx+eNvZYvwC378/kf18+TJZ3qi3fUMXPb1RBN5Lwz6vDUQTufTUMcFSFOuUawvMoNGRoh7oV37Ndku9vN0vQvafZP3rGfza9iVom6F9+aORIR6D19Ai2u78KP6YdYWXXo1RrbFcbXtQ6Gz9do0Dcfc8FZ4Ag3ho7S9II9j8zVUqMuedVXrLT2tLH+q/j/R5BXlWp43rCeyu95H/5e6I+yZJ0vsm4iIiIjofqhtnu+jBYAGtDyGNX9YjkOy1Rpdp2gkJq5THvGY2F02mmjVRHQYu4IL8IK7MqW/mqG2G7h7mOf1DA4XXcz0OHlAdAYzMSRc7UamP7FP7SZGRPQ4+eSPH+DbC8CdY4n4wNDdR2TqtMxAosyU+RYvYsYIkSfTB+9F+iAj0ZBBI9bfgo8+SESaXutS9cEfPxF7KNWd5ER8lJQBn3DlOOWsc3Pt27XIytOma8tc0VvH1+Ks+T/hNvSBn9cdZKSW1e3tR3x7zA3PqdcsqVlAF3EyVc6rlP0ZM4qUewB/vG66jUrcM39kK/dG624ngisvAuJeie0SlfsQ+Z6ylp0sXhu1u9mmj5T9pOEOLuJbpU09jrX1TBxeMRUf7LmofHilqeuIrnBbFnyLi17PabWH+r2oXE0avpz6h5L7JiIiIiK6T2pPf6c7tECQE154549qAGj9H5bj37fURpuKu4OZ1+rxCROBIVHPR9Tx+RCfynbbRL0grf5PxlbzfYVMiNfqDJ1NQtQ8hoCIqDroiLc7euLi4eI6MVtOX0S9Rp7K1EXk6evBubnWXmkOdeAoJ+12axfOf/IVrsiSQqI+0IkNu3BXm7VDNrLsiGMcTs0A2r9oDM50DFT+rT/2rUVNnC34yBhcOYwfz1rWOfJQAz5uxxKLayXJ4Mq3hvnDPyJD7wYPe4Nh5/NwR+cM8WqUyt71zCjXsycb/i+8rbwH3JC2qYxaQUREREREVaz2ubYDMP2dl/CSCAC1OWVXAKg0hppAxuDQngu4ojzpmpgXjb6SJYI6hoLRImBkXltIBIDGdtJpwaZJa2UrEVH14Nl9LubOlY/unoCLBzriMD7547eAXPZeP7lyOdULjsR7r/rh8qY4rKpIlEG/BecWT0XKoqn4eb0sEG03OwMuhz/BgQue8FOvsQ9ebJ+NA1ayYES3KsN9imxvUZzIy1/LprHcTuePSMO9nRsJf105AmvKeU1VPrteVLctJYPI3vUsbfoWaS7+8Dn7pdXC2ERERERE91PtRVPW41zbwVUSALJuLY6eVZ5aBmhFogNEMCgDR0XAR3b1sswAEqOG9emkYwYQEVVTd5Bm7PIlH8YRpET3L9EmgkHlH7bcGAD6Rxw+Kc8IYZbu/ILC67+otYDstwUnL9SDT6B9J73l32lw6/g2+ox4Dm4lsoC0AJA6Api8R4nHLK7nwrf4NtcfkZZDxSvtZvdWeZQ2qloJovuX2E4Eef5YXNC6BHvXMyUylXIvIrv96xySnoiIiIgeuNq4tQeL3h+BkRPKFwAqrgm0DgnqiF62fTpJjPDlg3CLbmIhHqJaUHEXMuO+umt1hNAy3NieuJyjgxFRdSC6NQH+/coKGpS/a1iVBYAqQQR20D5S1jgy6Ii3x1u5XtFVC/54sT2s1hHybFQPd65flHMd8UzLksOUbVmQiDSXFzHXEAjadBIXvV6scBaVmQp0DROFrM2v3VQfvNfdDWn//gjfHrMxQhoRERER0X1Uy8+v7a9ymoiILOTnV0EwRYw+FemPemrxX604tAgWvGgyHLoo+vzRJjGq1YvGoIMoJm0sFNzvPa3bmD7NRnHopxD5YX84/bMCAaCn/gdP9/JVJ69tfxcXf1YnzeheW4jWrcVUOk7P/wv0aqst5tehZT5NVbs/ieye1/Gl+XW1PllcWFncq37Al2pmlOl+7uDiBcDturatMUtI3U6uJ4owi+2M91sytJc4L4VYtgl4PdIZB8RrY7jPquLzFgyvmfq6XHvR6npineeuG143UaRadEcTr28i8jpGwues+TLDvNm+DfeGiIiIiKiKMQhERFSKKgkCERERERERPQLkAMBERERERERERFSdMQhERERERERERFQDMAhERERERERERFQDMAhERERERERERFQDMAhERERERERERFQDMAhERERERERERFQDMAhERERERERERFQDMAhERERERERERFQDMAhERERERERERFQDMAhERERERERERFQDMAhERERERERERFQDlD8IFPTfmBU7Fi84yflHRfcYJCTOwmA5S0RERERERERExWr5+bX9VU7byQkvjJuFIa1OYc2Uxfj3Ldn8sIkg0BgX7I78EJ/KJiKiysrPvyOn6NHijQavLUD7DjogNxXHlk/EzYf9UnnOwFNRwWggZw1uHozFz9t2ybn7rQc83p2IVi5A1pbeOHNYNlc1/3zs+FM+Dv3BGTFpsu2+icKirf3hCz2S572JaTtlc6lCMT0xBsGNgPQvwzAuXjZXU1GLt6J/azljlI6NYeOQIOeoFP4F2DrlFjKXumD0ftlGRERUTVWgO9gt/HvRh1hzpg0G/GnUo5cRRERENUBvuHfQqR9itV0C4d5ea6UHQASA5mahTaPb6PRiOf+ORHTfBSPqz8uw9qu1mN5TNpXh1Z630MY9D70n5yHOXzYSERFVUxXIBDJwwgvv/BED2pzC+j8stzMjKAQTl0cjqKE2pz+0BFHzfDA7MRS5h64gqJOP2p6xdSAmYxYSw0zm16iTMuMnCDo5a1xmlgkkj4MULB4Vh33K4sFz1iG8pbqJPK5oJSIqXU3OBGro2RGduwagTWMR7b+BoxvXYe8VbdnD9whmAllwHrwN7VtXs0wg3T0kfpKFrq5A3vceCJv2BDLlImuCJytfxLsrKwvnt2D0qKWlrm/dfcoEahKKqOgIhPh7w6ORo9ZWWICCvCyk7kzEgk92I0drfbz0nI7PJwQrvydVbSaQ9Wwj6/QH4vDm9N1y7kGryPsFGDn9GqY8rwdyGmPm2zrEK5NERETVUSUKQ9/Cvz/+I9af0jKCushW27TAjN+JJYiMHKg8knBSLlF+q0RQk6Na+9YM+IStQ2KA6XxxrZ+Q51xwcqnYvuQyg8FzohGUnYRIGQAKmRCPcCjz6nGX4GTbaMweoq1LREQm6jREi2deQsSQ0RjYN1gGgB5Fmbj5VQQO/qk3Di589AJA1dWEaTno6lqI/NNN8G4ZASARiOnTwRUo0EN/W5ltHowI7W87D53/kPn4fEUM+j/nWxwAEhwc4ejqjeCIaIy3M4uEqof4aW747HRdwPUaPphVAG/ZTkREVN1UzehgtU1+gbKlewj8kIIVxgyctYg1TuuRkrRWm1xzFBkl5t3h1V2b3TfvQ8Tu0aa1Zea8RMDHLQWLJ8ntMQh9OqF4f9iHvSf0cPcIkfNERGTQMCgMr3RugyZOynf3K2n49ts03JDLqIZ7SY9hgbeVN4YLvoqtizJzm3r2QPtGyvP5b7D5bIEy4YHAfg//q7Uucj7mRPpD56DM6DOxf81MjBsahrAw5TF0HGbGb0FyRjbuaquTlDBW3iPDY16y8tuaIDKOzJc9vCygyqiFmFgXnFLeqnX9r2Nhf9lMRERUzVS6O9gQ/1+w5sOPyu4ONmSWlt1jDM4YDNK6gy0dKYM79syHo/iPiRlIEl3AjN3E9EgxritYri+dTbJyLkRE5mpcdzDHDujb3wsX/r0Xhy/eANy7YWD/ADR8RLqDGbpYmUvHsT9FI0/OmTN0j9LW0bedCp//Ckbjxo7qX0HuXktH+hdTkJtlq+OPK+oGvY/mIYFwc3WEg7JR0T098tL24uzO5bida7vPiF3dwTouwfN9fIHcZPy4cCryZbPGcO56nEmIQNZF2WxQOxC60LFo+aw3GtTT/qpTVFCAX5/QztN6dzDlejr/Aa26+sLZWbsHhXdycHn/OpzfuxmF2kpW/IqFCRfxqjdwZdeTeHaO2LJ0odM+R8xzOqR/+SbG3ZyBr4b4w/HidoyOWmA7g6hJKMZMHIYefh7QGf6+dFv5Vl5fzNjo3qMLxIB3x6Cvch9c68s25T7AUduBWXcwXX/MXhmFQNGnPCcZC0ZNw3Z7u/1YO87tHGQe+Qar5q3Gfqv7cUVo9FQM69a6OOOoQI+sk/uw4ZMF2GKjqLZ/+HiMeiME/h6Gzu+WSunqVK7uYFbOT7mm9D2JWLJgC0qt+V2u4+gQ+NZ7GNPvWXgrP0cq5T5kHt2MVbNs3Ttlqw4D8N47ffGstyscRdBOUZCTWbK73shF2Pq68nNkh7IKhb81KQdxPZR/+zKbIjKqHlgnmoiIqpuyf4uzqpwBIAM3L1Qu/8YQEJLdwSKTLDKBMpC09QqCxlh2EROBIsM28sEAEBFRSQVHsHn911oAqFpphsb9VyJoQAjcZQBIqNPYF/4jP4Kb5ZBeQu2X0ThqFZ7pF6xuIwIravMTOrg89TJ8n++sNTwMDUai1fuxeLqbN5xlAEio7Vh8niW1g/OAVQjs3Q4uMgAkONRzxZM9oxE0eCTk9+ySOt5BV+9C5f3REF8vsnkAE6Ho4S8CGJk4/k/lG/6mFJwWyUCegTa7hOl6TcHaFTHoE2ASABLUAJAN/lFYtHo2hnY3CcwIMgBkSTewhxYAQha2zyhHAMh/KOavtHKc+q7wfm4Apqycj6GWBYV1vRCzYgViwv3Nu5w56uAR0Atj5ijLepUM8viPXIQ50b1KCQBVFX9E/cXK+SnX5NtrDOYsjlLWqAo69Jq6HLOHdS0OAAnKffB+Rrl3y6fDym1Qbt90LJ8zFF19igNAwv3urvfZIh2Oiveq9y2Mel5rIyIiqk7s+U3OQgUDQKLrVsMgjJhgCAMNwkTjtJ26e8EdV3DBkOUzJKBkhs+aD7H4kDvCEw2BoLU4etYH4XMGqXNERPT4yvu0N77/k3wkJOOmbC+b8sX7qWaoc+cS0j8dqW2/7BtcE4letZvB83nLzyMdGvSPhp+n8qW1SI+snfE4NEced/4M/LQzXU1QeTiC0XhwBDyclFO7dhzHVkbLexKJg8s2IMvG57JD14nwb+uI2so9OPPFVG2bmSNx6ItkZCv3oU7rCLTu2k6ube7VXneUz1/F6XpYbk/gxNAV7OJxbBZ/rdFvwLHzYoGNLmG6AZgxpitclS/7BRm7kTBjNN4UXYveHI33F+63UaA5GDET+8NXBGWupmHjwnEYpHZHGoRxszciXdQhshD5lMwWOb0P8XYPbe+PMe/2hxrT0qdji+E4yrnNXJOMLPE+0Pmj/6gByrvGQIdeE0ci1EN5/xRkIXnNTIx+U57bwi1IF/fQ0QOhkdHKVZjQDcWocF+IUEnOkdWYOepNZZs3MXrGaqTKm1CQtlq5N/YXPLbF/92J6O9nOL9pJa7JsXV/THy38mEg3etTMLKLKA6uR3rSgpL3wTUYI6f2N7l3gjeGvREMsVXxfdDO7/2FG0t214sfpy1XH8prrzaKbClDW/GjtCwgld4Rh06LV+AmOr1sOzeOiIjocVX+IFCnwejbtpwBINVaTI5MwpVO0UhMXKc8wuGSVc4RuvbEYYUa4BHbi+LRIsenpH3zRiJJBH4S4zGxO/DppCVIcQuXxxUPrZ2IiGqQO+k4tnQ4rpyWnZGyPsK5I1pEo0EzizHmG7+PFu3FF0E9zq4YijN7N+CuIehzcx/0e6ORvvNBjfhlof1AtG6qPN85jmN/fQ9557SvvMrXZRRlncItq8Gpvmj6fDPlQ1+PzC+ikXUsWWsuysTdY1Nx4qtUtSta4w79rGYDhXhpH/iZZ+rYNbpXn5faq1/qs45skOvrkZiqnadHh4gSRXcDo1+Gv7jdWbvx5zFx2PhdprKFQp+JtG2XkC2mLUVGoquH8lyQhtW/fx8J29JlsEh0ZzqF7BL3oSuaNdGm9FdOaftXidGktmKrxWPRSLk4fBh6+Kgnh+1Tx2Gp4TiinlDiNIxdlaruy9G/B4YZ/jLlMwwRz6pRI6SuGotpifuRqR5QObdtSzFu6nZlbwqPYPQPFxNSvyC0Foe6noxVk9Zj/3mxkfKafbcek1dpNXgcWwbiZbFupfTBsO7i5hnOL9n8mtakQtw+j2f6IVC0V5g3hr0SqL0Xtk3FuCXbrd4HnX835R1qyhce6kiyBTiXvFneB4X6fkjAtDGjMbOSQbDSfH2mnvrs7HmPBaKJiKjaKX8Q6NByfPB+eQNABiIQVNwlSxv2XbSZ1vApfV4EeIq7dH2oLBNDwiv2xCHKMK34dJJYx7DdPsSOKj5ucTsREdUUV3bGIM8idSj/8iU5Zc6hgy+cleeiczuRdUF+AX1E1PVpoQZq8tP24maR1lampkFoLLq85R3D1dNWrufEKeSK56YtLDIyhEJ4e4iMCCdkHq+lNZWqD0Laql/7cXxPcchIvy5Vy9Ao0SVMhxAfEZBQtvgxETI8VaZe7bzVjJkC5T6st+slckQd+VtP9tVUbcIOXTtq96QgbZfV7CH9l7tw7LqY8kAbw1CpL7XTggfKcTZ+aeXk0uKRrP4VS4dmAXaGWXTK+cvJSusehBbioq4fwy4r56ffkK4F7zy8zTOVyu1ltGsunjOR/ImVm5eWgnPi3jl6o51Z965kHP9FhKEcEThkOeZH94KvDOA9CPuP19FqjLneQ2+1hYiIqPqoQHcwIiKix09Rkf3BHJ1HM/X51qVjsDfO8qDUddPCNHkXt6nPdmnWDOpg/87BeOYP2/B8iUcEtDCMNSbjR9yTz6UJD0EbcYpX07HrR61Jpf8Gx612CQuGh+j3Az3OpdmTZ6RpIe9DVsY36nN5uDUxDbwkYJyxu1AcktWATrEWrtpx7l4/p2bilLQdmdfEsyPqyNpSgWrETZF3yUZQS49jWdreGtRXL17z3SktQ6hRMIbNGYCuzcWxdfDuFYX5bwRqQa+zx1H+K7bQ1gPqUZXjjLeSBbV1a3/YV2a5DN2bwU2d8Eafz60dJwbBottgCXqsn7oUu9V+aa5qoexFq7fi8xWLMP3tXvDWXpL7x/A+b1QIPzlJRERUXTAIREREZOkJ+fwIK09QS1xPZT7w64nog536dG2jZs7o0/daBEAysflnNcRhtUuYyp4gk4WCQnvvQzIMg8DVaaQF+ezRwKEcFy/p6pZ/G1XGUiR+p52ka4ehmLL8c2zd+jmWje8PfxG1KUjHluWrbQSjyuFB/fZXp44auKoQ/XbEjRiEyR9vR+r5HOV1FsFZXwRHjMey1cswvsv9jgQRERFVTwwCERERWci/qn3Nrt/A/mBB1XNEbWuf0jJQonOzMrhCbTfrA2NdytaKaIuh6NUi0rYe1obar4U7hvo6ZQbHDF3BlPN7LsYi62MrlvWW+UZmXcIKcFdNt9LBrZXaYM6/AawN3mYYz96tWVdtwpTO2n0ozr5xbN0ZQ+2MIZzK1raxHTjqBe/G4rkAN6+qDdiv3G+Vch7WO3vp0F6O/nUzx1DTSeE/HsNEEeWcTKTLc1UV6pF1dAviosYhwe6C1qVIz9YCSdeTEWdSNLnko6yh38uwMxNah0sxjLy1/Rsetgpd65G6aQEmjxqE1/oOwrT47Vox6fre6DUqupL1iuxw3QEn5SQREVF1wSAQERGRhfxz59QYg4P/y9aHj68qdwq0WIZj8ZDtGjGcezS8RWEiC/os7Wt1g5adS24zcBi81H5fFi4eww0RyHFpA2c1YFEeDriiJqfcgnc7k65h1hi6gpXJtEvYfpxSh9gCvP36q89Gul6YPrWX1a5qyRe0rCJX5T6YZxX5Iyp2KAJNh3KXdm9L1rpbOfrj5Qm91Iylsuw+kakWSXZs3QNjrAyWpYvsjUDRpangNI5v19rwQ2Zx4Wdr458/F41gNQiWg/QDxV3gQt8KUa81c8/7GDdCjoglHn3fxIgPlmK3DDJV2s7jyBQX1agNuj2nNd0fychUb4Q32g+xM+pmUw6Sv1yAcfFageyy6xXVgaPVrmZl8/7NXbUmGHKeQDk6XRIRET0WGAQiIiKydGwnzovUmdrN0OadlXgy6GXUNmSW1AuBrtsS+PbsIRsq4eIl3BDPTu3QvLvcX72X0XhorDacu9ZipvBIupat49UDvt2U8xIruUXCI0rZprUjiqwWMdqEy8fEV2dX+L6tXY9DPfmlvLY3HFpEwr3/SvjZuKYdZ9ShmpQvxwXWu3FJ/bu3UwMrBUcSigMYFo9pe7TuTh7PRBozOTb/eFoLtHSIwOxIMTS4qIMzBosSxiPYpGSOqdRv5ShdnqGYMl6rE+P67ABMT5iD/uoQW1YcWILEA7K71XPjsTZhNqJ6+yrH07j6NSvZfSlxJ46LW+fojT4zFmGMYX2dN3q9PR/LB/qr2+Qc2oTVanRCIQpcq/WPdAgesxjTI7vKOjauCH49BstiQtVgT8HJXVh1QLRrmjXSSj97dByJXs8EIjDA265AVfltxt407f3QdfIKzH67F/zV+kMK5br8ew9AzNwVWDY5VGursFRs+lFEgRzhH7kSi8b3R1c/492Gb/f+GDNtGdbOj5JtBlGYv3YZpkcr65vcA13zrhjQU+tuiKxMG/WWDIEnRwS+MRsDupT/Hg77zR31+Yqdo+ERERE9Tmr5+bUt4896REQ1V36+9mWgxnDvhoH9A6B95bftxs8bsG5fVaUl2GskWpVawFhz82Asft5mGL69BzzenYhWLsp3xi29ceawbDbouATP9/EFTm/A95/Gy0bJayLaDuoBN2206BLMjwPU7b0Bz3Qu6+tmOo6ZdbnyhvOAJWjftmTQouia8mVWH4yWLfQ4kxCBrItygfKVtsEbiXhKHcLeXP6JDTiR2xtPK+dR4nprvwyPMe+hlVap1yrLazJ6/hZ+mH4V7nDGP0a74F11ZCtL/TF7QxQC6xcgNf41TP5SNlvqOR2fTwhWriILu/93BOLU4tHBiFkxHaFWXtyc7xZgn8d49GmtR/I8025DOgyYvxZD1bHlzRWc3IjV2S8j6jkd0r8Mwzizl9YfQ+fPwAD/0l8r0+10vaZg+biucLU2fr5CHG/S/yTArKeWfxQW/bk/fK1kJKmu7seC38/EdkPgSKF7fTZWjtSGVLfqdg4yf9iMpQvXI9W4nRjivuxCzvoDcXhz+m45pxBZVsttB9mEEtuYMr6OoqtXad3G/BG1uJTAnHB6I8LGmu6hrGvKQfKCUZhmevNMeL+9CIsifEsG9BQl3w8WdAXYuv4SAhwbYNc0Nwz/XrYTERFVE8wEIiIisuZCLE4siEXa4Uzk3YFxlLCiAj1yf96MkzutBEvKTdn335VjnMiRdXGU/d/LwZW9q3Dor1Oht1ooWY+bX0zETwczcVsuLyrIwS/bYvHj+njbtZWLvkHW0olI3XkcuXkFxaOeFRUg/1omMnfG4z+2run7+tifKSIgeeg6yGqqEfB6MNqJgMft40i2FQASlGMYhlRv91+GXKBkxI2diS0ntQLAKn0mkldNxqgZ29UsoZL0WP/+JCQcyITesI1yH9KT4jDifxIgq/JYkYbV7w/H6AVbjAWHjQoKkHM+DckbFiBunWxT6LfPxKj/XY39GebrF+Qo57hBO16JUj1pCRg3Og5bjmZBb3oB+iykbV+KyRYBIEG/fTOSDcE+5VwKbisP0/Or7wrv7kMxPTYKVnqmlY9+O6aNmoyl29OQdd3kBAuVYyrXlbo9AXFLbASAyiUNCWNHIG5DMjJzzF/JgutZSD+wEQvmJMoWg0QkGApCm26i/OxlHd2OpZNsB4CEzE8mYdqq/SWOZ48eI28hQESPMp2wnAEgIiKqhpgJRERUihqXCURkg3f/m9gxOht1C5zxjw9c8G5VFCgmE96I+ssi9PdzRMHpLZg2calJto9CdD/7/Z8wpqcHHM2yqKjKGLOAnLA/rgkid8h2IiKiaoSZQERERFSmzI0NsDqtLuCYh1ffy0cVVEQiMy8j0E+koOhx/GuLAJCgz8T2I+dwV51xhOP9LFheI/2KuHk5ahZQfqoLYhgAIiKiaopBICIiIrLLzA8bY3+OA+BzFQun3yu1SDRVlA7t3piOAd2LC1aLLKCur4/HopGiBo/i+ins3aMuoSoycno23mqdD+Q0xtzpT7AgNBERVVvsDkZEVAp2ByOy4J+PHXOz0MaxLjK/aYJu821US6Zy0qHXtOUY/1wplZqFgizsXjoWcaXUxKHy6RqVh5Vv5qJugQs++8AZMezqSERE1ZhD48aN/yiniYjIQmGhzTK7RDXT1Sew62xd/FdgbeyPr49/PuhB4qqtu0j/9hv8fMMFzb2bwdnREQ4m8TVRRDkjdTsSpk7D2p+0TmFUNTJvAa91rYM9053x/lHZSEREVE0xE4iIqBTMBCIiIiIiourC7ppATm6N4CSnrXOCi1vpaxARERERERER0cNhZyZQJ4ybPxotTqzBtI/34JZsLeaEF8bNwpCWx/DxhOU4JFsthUyIx9hOaklD4GwSIiet1dqanESKWxCCGmYgKfJDfIoQTFwercxrq+oPLUHUvH3aDBHRA8RMICIiIiIiqi7szAQ6hEVT1uAX/yGY/k53i4wgLQA0oOUxrPmD7QAQhszC2LYnsThyICLFY9JauUDR0g9YI9qLA0B+J5Zo60Um4aRcjYiIiIiIiIiIKsb+IeJv7cH8Dy0DQU544Z0/qgGg9X9Yjn+XTBEqlpELfUMXtJKzZs7uRqxhqNPuIfBDClYYM3/WIpZZQERERERERERElWJ/EEiQgaBzbQdg+jsv4SURAGpzquwAkLAnDlFbgfDEdUhMnIXBsrkEHxfosi+AYR8iIiIiIiIioqpTviCQcGsPFk1Zj3NtB9sfADJY86HWxUsEg5bHIEQ2l+DmZXsZERERERERERGVW/mDQIIIBL0/AiMnlCMAZKq0rmFrjiKjYRBGTDCEgQZhonGaiIiIiIiIiIgqomJBoIoYMguJalcw5THGDyeXiiLQ1qzF5MgkXOkULdcPh0sWO4cREREREREREVWGnUPEExHVTBwinoiIiIiIqosHlwlEREREREREREQPDYNAREREREREREQ1ALuDERGVoqZ2B3Nq1hFdugWglasTHMSfCwpv4eqZw/j230dx9a62DhERERERPV4YBCIiKkXNCwI5wDPkDfR9ykXOW7hzDt9+/jXSKjIyJBERERERPVQOjRs3/qOcJiIiC4WF9+RUDeHdE2+EeMKh6BbO7U/Cxm++xcHDPyE9uz5atmqCunUaoanjLzhy9obcgIiIiIiIHhcMAhERlaLGBYHyzuCyzhP39n2OnWf0KBS5or8W4k7OWVxr2AG/aeKAOvXu4exP58BkICIiIiKixwsLQxMRkZmL/96MvZfljImLl6/KKSIiIiIiehwxCERERHZp4tZQm7ibj3xtioiIiIiIHiMMAhERUdlqeyKgtRYEyvpPKlgRiIiIiIjo8cMgEBERlcEJ/q+8DH8nZfL6Eew9UqA1ExERERHRY6Xqg0A6b9Rp9QLqN22G2rVkGxERPaYc4NntNbzY3BEouIhvN30HVgYiIiIiIno81fLzayvGfqk8XRe4RbyOZh5OxZGlX/Nw5euFyDp6STZUrZAJ8RjbZDciJ62VLeU3eM46hF5dgqh5+2QLEVGx/Pw7cqomckKLF1/DK/4NgYIsfPePr3AkWy4iIiIiIqLHTtVkAtUKgFvkIHjKAFDRvbvasMK16sPB4a66yuNOBIsSJoTIOSKi6s4Jbf4rQgaALmLvFwwAERERERE97qokCFS7Ux80c9Wmb6Uk4NhH7+H4/81E+lcJuHjkmtLqhNrO7B5GRPRYqN0QAeFv4aXWTsCdc/j2s804ykrQRERERESPvSroDlYHDd/6CC1bKJN3T+D0XxbilrLHOi/NgvuVD3HxiFinNzw/eAF3Vn+I7Cwxb0sIJi6PRpAchVh/SOumpXb76qTTGpGBpMgP8akyVbI72CDMTgyHj5zL2DoQkzNikDAEWDEqDlqHL3GM4cCakYjdY9EdrLuy7pggGI8ktl9jfk6mxxfbhrfUWk3btfMIRe6hKwjq5GO8DlNm13QjBYuV82ulnksSTrYNl8fTI2Wpdp7GfW49Cb8weY5yO3ZkI7p/alx3sNoeCH4tDB3dHYGbZ7Djy+04dUsuIyIiIiKix1oVZAK1Qh0XOXn7Ou6KAFC3KWjdwRkuPePg8cIwtP6gD9zgDM+hi+HZQa5bghZs8TuxBJGRA5VHEk7K9m5NTmKx2jYQSWd9ED5nkLrEnBYAwlZtvcilKciVS+wV8pwLTi6V22/NgE/YLAzGPsSOEsfVglKRJgGocLcU43lFbgXCl8coZ2ugQ1CTo+oyqwGgtibXdEIuUOg6hQJrDPu8gqAx4hwMlH12B1YYtssOwlir94KIqGJcOr+kBYCEBq3w0pDRGD3ayiPcX1uHiIiIiIgeG1UQBLqNonw5Kd3dOxOnj+Qhd2cMsvZ8ibPLdiAXecj6KhaXjsuVLHUPgR9SsMIYMFmLWHV6H2InFWe7fHo0Q05ZGBIAn7NJmLxGzu+JQ6xh2k775n0os24Ua47CxpEUg9CnE5CyxiQLZ02ScvZ+6NZdzossniRrBatD0K2t+bafziue1h9aaXIOyj5v+CBgiJwX+zTdLikF+pYBJkEiIqLKecJBThARERERUbVTBUGgTNz+RfYVcP4NGnnWUSfv7luIrBPK9K95KMz7Add27EBuZiaKbNWJ9nGBLvtCcVDF1JBZSExcpz3CDJ29zIV4uEN/1XbYxj4im0gex6RbmXVXcMEQrFHtw4VsHVxK30jhA5eGltvaIvYpJ63Zc0E5CyKiqnN13zosW7as7EdSmtyCiIiIiIgeF1VSGDo/+QfcUCsLOaPZwOlo/vq78Oz7e7QZOx1ualAoE7cP78DdskpruHmZdKeSRACoe65JtyvbgR5dkzIjMKWQNXcM3cEik0rJBBLc4WXM+hFC4OWmR65dcSjLbW0pY5/dveB+Ixdn5CwRERERERERkS1VEgRC9pe4+P0lqEk+tZzh0qYt3Hwao44y7f7bPtByg8ogul81DMII4zDsgzBRmRYZPjDJEBocYD3Qs+/ASehbhmO2oetU9xhMFNMiW6ZhcTetkAnDTYo8mxABFdPsHtG9TE6WtBZHz+oQNMSkBtCQcAThJPbayPApHmK+5LaDJxRP6zqFG7t3qedqtk9lu3BDDaAQ5fqCgBP7rGdPERERERERERGZqJogEO6qdYD+s+rvuHDkBHKzb+H25Uxk7ViI/6z+UgsOlWktJkcm4UqnaGN3LJesfdg3byVS3MJl2zoE2MrP2ROHqKUpcA+T3bnG+IkBuxRrseUQEDRGax+B3UixNtSxsv2KQ+4Il8dJDJCbS6L+DtRz0wo1fzpJFmY2rC+ylewcqcty2/AmxUEu/aFcBMj2sZ2uIMlsn3qkXA3QjpcYjaDspBJFp4mIiIiIiIiIrKmCIeKpqpgNV1+CobuaYch4InoQatwQ8UREREREVG1VUSYQERERERERERE9yhgEIiIiIiIiIiKqAdgdjIioFOwORkRERERE1QUzgYiIiIiIiIiIagAGgYiIiIiIiIiIagAGgYiIiIiIiIiIagAGgYiIiIiIiIiIagAGgYiIiIiIiIiIagAGgYiIiIiIiIiIagAGgYiIiIiIiIiIaoBafn5tf5XTRERkIT//jpyi6qhu7w14prMOOL0B338aL1vL0HEJnu/jC+Qm48eFU5Evm+lx0AMe705EKxcga0tvnDksm8tieM0tlGsflfIr4v56DZ1SGuOlZbVkGxEREVH5VW0mUK12CPKdiehX/ob/fVU++izG2wGvo5lcpSqFTIhH4pxBcq5iBs9Zh4QJIXLuwXgYxyQiInrk1YtA4wErEfjhEjjLJhIBoMt4q/UteAcVoIdsJSIiIqqIqgsC1eqO8Bc+QPhTnnBxVOYL7uLO7bu4Byc0a9MBJf9+9nhh4IaIagqHRq0Q3DsCQ/57NEaP1h5RI95C3xB/NKkjVyK6H9yC8GTbZqj/hJx/VByOxvd/6i0fsTiTK9sfgJHTs/FW63wgpzHmTqiLXbKdiIiIqCKqLAjUrHUEglzE1F2c/2EuYr8ejf/bPhqxSVOwPiUdenUtIiJ6tDVBl/Be6NiyCZxMAj4Oji7wfOpFRAx8BW1EoJ+I7jvv/jfxwfPKb1AFLvjsjzrE85cpIiIiqqQqCgJ1Qidvmbh9+XtsuHAc97Q54NeLSD/7KVLkbOlCMHH5OiQmag9D5o3a7Uu2JSbOwmC11ZpBmG1cbx1mD1GauscgYXmMsmcDcYx4TOwuZ02JdS23l+cU3hLQdYo2O77IDjKsa35e4jyUY0yYpS6znkHkY3KtNs6HiOghyNdfxamDX+OzFcuwbJnyiF+Bz/55FFcLlIX1WqBTYENtRSK6jwoRNyAbdeGIU1saIiZNNhMRERFVQhUVhn4Lw159Gc2VqZtpy/GX/3yvNZeLCLZEw+/EEkTN26fMD8LECRmInQdMnBOCvZPiIFpF4CUcSYictFYNDo1tslud1gIv4cDWgZi8RpntHoOJPnGIzYhBwhBgxShte+04w4E1IxG7R9tf6FXtmCETZqHbgQ/VdgyZhcQwICnyQ3yqzJqup+5FHLvtSSw27Fes3z1Xzmvn4nNWO09L6jW01CNlafE5GK6JiB4tLAxdzKPbELwW4IQbP2/Aun1XZesDVtsbdTuMQrPn2sOtsQ51Zbehu3mXcHn/KmQetNVZRgcH//fh81Iw3Fwd4SD+BFJUgPwiR20ftgpDe0TD+7WeaOquQx11G+U9cQ+oK7KhqrIwtEsk3Pv0Q/MWrtr5KOemP38cZ7f+CXmXTdM/dKjfbzUCg3TAnXQcWxqNvJtykUq5J2Gr8cyzcvlCZbnZW1jZf+c/oFVXXzg7O6p/CSq8k6Pcu3U4v3czCrWVSqodiPpdh6Pls8XbFRXk4FrKTpzfGY98ESCUnAdvQ/vWyu8DB2Px8zaL18NzBp6KCkYDk3tnLM5dJj3OJEQg66KcFcr9fjAUhpb7KtRe32bK6yveE4XZmTi9JQbXMnLk+taUp7h0yfddUYEeOT9vQsbWVbirvJ9s6To2F4l985SDuCNmaH18JtuJiIiIKkP8Hvdo6B4CP6RghQyyAGsRq07vQ6wMAAmfHs2QUxaGBKhBFzUAJOyJQ6xh2k775skAkLDmKGwcSTEIfToBKWuKzwtrkpSz90M3Y0aPHilJtoM6+kMrjcdSr8nNyyRbiYjo0VNXfsMuLHh442HV7bUAz/QLxpMexV/4hTrOzeDVeyKe6R8pW0y1g/OARHT6XQjcG8sAkFBbBoCsUvb/20R0Ht0XXsqx1ACQoDyrAaCq5DUV7ccOg29rGQASlHPTtQhE+1EJ8PAyDZDocXvLcpzJVibr+cLvtZFw0BZoWv8B/iIAVJSDM2tjLAJA4j6sQmDvdnCRgRzBoZ4rnuwZjaDBFvsyaDAMLd+NRWBP8+1qO7rCvXMEPJ+SDQ9Bxd4PGscOS/DMSO31NbwnHNy84Td4KTw8tfnKEe+hhBLvu9qOOjTuGIlnxsxAXcPNLKEIozrnKc+OOLqDASAiIiKqOjZ//SifU7h6XZtq4NYODbTJ8vFxgS77QnFQxZTIsjF0uwrzkY3mQjzcob9qO2xjH9PuZOGwfiSDK7hgCBip9uFCtg4upW9kXUYuayYR0aPL0QUtOvfFS60dgetHsfvQDbngIbh3A7knknFs5UQcnCML9cbNwM8pOSJJB3WfehmN1fp0xer0mAj/to6oXZSDC5s+Kt5u/gyknTBJYTHVfiae6uqqbFOAK3vjcSguQh7rPaR+X1qWSDnVjoDXWyFwVj6N9Sc240fDceZ/pJybHkW1XdHqrT+gvumnddE3yPoyGTeVC67Tui9adGyntYt9vRaI+srkzR9WIuuC+SeLQ1d5H+5cwpkvpmrHmTkSh75IRvYdsa8ItO4q92UUjMaDI/Gk6PGtbHdW3L+Z4v5F4OCCj3Ds8CUUGPt/V0z+NnnN4pGgXJfamo5jhjbjwyILSKjA+0Gjg1dnX9QtMLkXC1chUwTXlHvesld05X9BEgE59T2kR9Y2w32LxMGVm5GVpxzGLRj+fSLkyhY65uMpD+W5wEl5fbQmIiIioqpQRUGgQziUKf5ipWj6PCK82sH4B7lanvBtORhBcrZU1rJhDN2sIgciUjy22g706JpUJAJjIAJAochdKo8TmVRKJpDgDi+zOj4h8HLTI7eycSgiokdBu77GkcFGj3gLrzzjgfxz3+Kzv+9FVildWO63/H8NR9r6qcg7lyp6TGnu7MPNTSuhfQw1g3MLtVWKhOdzzZQPuwL8sjEKmSnfFG93cx9u596VM6YC0fiFdhB1sXP3zUD6zg24e0cGVO4cx+2rIlJQNWp37g2vBkDRhW9wbP0S5BuOc/Mb5K6fgnQR9GjQDk39tWajC1NxfOclFMERHr3eh0sDHRr0HwZvZV+FGZtxfNs3ckWDvsrHs7gPemR+EY2sY8lac1Em7h6bihNfpapdsxp36GeeDfTUQLRuqjwXZCJt6XD8Iu6f+vrrUZT3DfK2DMeFI2L+4Sj/+8GE2p1uePG9yE3EhcR9EJvVbt4eDSr1G5I33F7QAnLXdk7BmYOG+5aDonNLcCbhG4h3Uf323az/4azjXeW3DMVVR3zNvxIRERFRFaqiIBBw6fQGpKhDptZB82c/wMRXluH/9VqGieEzMSDIF2X29hfdrxoGYYSxiLKoCRSiZvjAJENocID1QM++AyehbxkuizkrRE0gMb3nAq40LO6mFTJhOIKs1TTt7qX8wmWS3SO6l8nJktbi6FkdgoaYFJweEo4gnMRew/YWRN0fDjFPRI8vBzT0eRFvRLyIFk6y6ZFSIL9kK0y7eHm1h7PovnXrOC4fs/PbdO1ucBGBD1zC5e9kgOA+aeDjrX4QX0tdbqUez3HcPC/O2RENW/TQmkwU7o9F2ukCZbE3/KJW4zftlQu9k47/bFxScl9Ng9BYRBvyjuHqaSv34cQpqB/hTVuYfV438PdVg0K3f96EXLPaQ486G+8HE1n/sqynpLh2DNdvKc+1m6F+M62pYnqjkSiUiExc+f642mLmZgquixvuqNxvK13PRnprEa28C09gvzpFREREVDWqLAiEX/cg6d9zkfTzReSK310c66Be/Tp4ojAP59OOIF1bqxRrMTkyCVfUEbi07lguWfuwb95KpLiFy7Z1CLCVn7MnDlFLU+AeJrtzjfGDtupabDkEBI3R2kdgN1Ks9WRQtl9xyB3h8jiJAXJz6dOkFMBkdLBPJw1EUnYQxhrWNxaFJiKqBo5v1kYGE4+/rcGGrck4p3xhdnDzxyv9uqCJXO3Bc0XdoBnwjd6ETlO24fk/GB5aod4SPNy0oMblc7itNtihWTM1gwN5mdDf17rgIagvb6R72AaTayl+lF4w+TjyvtiMLOUcHZx1qKNm+cSUDGwIyjWpsTvnYDxj5TjP/yECoveRuRDommkFkPIublafHz3lfD+UKRv31PiL8jtMhbaXmjaDTv0Nyxv+Zudl5/kZ0rEKa8kJIiIioqpRRaODERFVTxwdzETtNug1/CW0qlOIM/9MwPbTsv2BaQfnwbFoL2oTlcJsxKaOS/B8H1+bo38ZR6YyXW5lBCszhn1WenSw4lGmymJ1pC2hQTR8x/aFu7wluXumIm2XlewlwzmXSdTiiVa7RJVvFKxi5R0dzIxhudl52FKB90OZ11Q8etjZTyLwywXZbMaO+2K8jrJYGfFMMSHuMsYF3kHe9154eprVct1EREREFVJ1mUBERFS9FZ3BhWtiwgF166otD5bPcLRSv/AXIPvgquJizeojFmfU/kwW7olxlhQuzdQaP+Z0eMKpZKtMBQGc3WDtMh2cyuzgbKdduC3LC4lgQvG1lHxYDQDVfhkew7UAUO6x42qhaJeQ9y1GE5MuZWsFl0Xwxcr+ix+mgZfi86vbKFCbqKxa6v+qRkXeD2Wp3QZOogg2bqCgMrV4Lp6TAz5YK3Bt+rBS7Fpx/bb89cyBf6cjIiKiqsUgEBER2ad2K3g1FhO5uHRebXmg6rRpIbtppeLstsTiYs1C7Qaobe0T7dw5Lajh5ouG9dQWI4eOcfB/ykoWyeVTuCHiQLW90bC11mTkNQPtQitVLMaM/sIl9blJm2Hqs/10qNt7FFq5AUWXdyH9iyk4eVi5H2I0sYhJJYcev3hMuyaXNnBWX0P7GM7P5ZmB5iOUlaLojhZEq+OonJypBiPRKjK49BqBhgCcCNBZvF6WKvR+KIPD8yFwF9tdS0deRYJIRgeRd1k8e8P1qfIHDbdlaYWMnL3uoas6RURERFQ1KvArEhER1SiOTmji3RGvDBBdwYCCs4eQ+hBGib9rqEzcoA2a+MvMFEdf1A+KRdv3o9FSzeCwkLsT19TspWZoNeA91K2nfCF3DEaD3ivRIcwXDobiwWY24ZoouAxHeIXFooGbqxoQqtt5CZ4eoXXxsbpZBRQmp+KasjMH/0g8rZyfzsOky1aDEOg6z4Dv2I9geWkigPXUs8q1FF1C+uexuAs98retQ6a4RS7BeOp3Iy0+4DfJwtiu8H17JZ4MehkO4l4IyrU5tIiEe/+V8OtpXoC68Ltk9fzQIBBPj12Cxm1CioMrDV6Gc5+V8Oog56Xb17T0obrt+6Kxh3LvoENtr/fg+04EPMoqKm4IwMnXq34Dsb11FXo/mKjvGYG6hv2L7ZTXt31PbSS5rD0rlXtaGanIPaKN3vbka6vRqpvJsZTXoLZHBFx6x+OpN0bKNnOZ39fFFTHhWYDXyh9DIiIiIrKJNYGIiEpR42oCuXfDwP4BsDaIolBw5TC2fpX8cIaJrzcSrd6NgIe1DJGiAuhvAjpnx5J1Wtp/hE5vaEO+myq6lY60TdloMSAYDSxrBjWeCP/f94CL5Z9KinJwZsVeOL3dFx6Vrgmkcei4BEF9fK10VzOwqI9jUgeoRA2g1rEIHCyGJi9Q7sNE5T6YjEwluo+NeU/NHrLFWh0fh6c+QvvX2slCxyWVuN+lvE55B1Nxt3MgGpdy7+r+NhGBXV2t/JXKon5Ohd4PZddhupkSj+ObNpiNsGaoc1SqEtdkR80iG7WqlAvAyk/Po4e7AzI3e6LbYhaIJiIioqph41c6IiIi6W4Bci+nIXnzOqzY+JACQMKdeJxZnojMLD0K5TkU3StA3ul9+HnpMJxIs5G7cew9pKxPxrWb4qu1okjZ5sRmpC60MkS4wbVYpC3fjF+uFchtgNvnkvHT4ihkXTB0WaoahYejcWjZBpw5nYP8e7JRUXhHj9wTyTj2yZziAJBJHSC1G5hlEejTf0L6MS2LySNsItxMKxMXfYOspRORuvM4cvPkdQnK/ci/lonMnfH4z86StYcKf35Pue5VSD9xCXqTSy+8k4Mre1fhXIpsMBCv00qTe6cozM5E+t8n4ti2U6JMU6ny/zUGqdssztGaCr0fDuLqps04I67llvk90Gcdx8nVE/GzRQCo4o4j79Nh+HFTMq4o98JwjuKg+XmX8MvBDfjxi3Wy0VJtLP9epDIVwvv523hLayQiIiKqNGYCERGVgqODEdFDobuHL9dcREedIzL/4YFuS5kNRERERJXHTCAiIiKiR43+Cbz7hQvyUQDvV65job9sJyIiIqoEh8aNG/9RThMRkYXCwrI6rxAR3R95P9XFHb97eKHlTfg//wT0XzvicOUqVhMREVENx+5gRESlYHcwKkvd3hvwTOdyDuFksyAwkaVfEffXy3irdT7yL7pj5oj6WC2XEBEREZUXu4MRERERPbJqIWaCO7Zl6JD5fT0GgIiIiKhSKp8JpAuC01OB0P36A64cPCobTdVBnc7D0LDWCeh//gH5+luynYjo0cdMICIiIiIiqi4qnQmkC4tC6xeC4fFiFJp3bi1bDUQA6H20fjEIni/8Dn5hL8j2h2vwnHVImBAi5yqpewwSEuMxsbucJyIiIiIiIiJ6BFVhd7A6cHlxHDw7NJbzgEOHcWj9oreypDwGYXbiOiQaH7MwWG0PwcTlyvzyGGXKGm27KgvuWBoyC4lzBskZE3viEBU5ErF75Lw1aqDIcB32sTtQVYF9ExEREREREVHNU8U1gerArddENGvXGA7t3oVPr9blCwCJQEtiOLB1ICIj5WNpLgKMwRC98l8Q+gyRsyZCJoTCR04TEVH10rq1ZaYpERERERGVV5UGgYpEdaFaTmgSPh2/CW+L+rWUeaWtSF1alkGYHeaOlKUDMXmNbBL2xGHyvH1yBjh5IgM+AZYZOYPQp9MVpBzSy3mNyKYxZhTZyiBSA0/rMNsQWFIzawzb2ZFhY5GJY3pMNZNH7H9MEHTwQbihzdp6RlrGU3hLQNcpWp6DluVkfo7xmDjJ+r6JiIiIiIiIiCxVYRDoNC4mncBtNRCk7FgNAN3C1aQdyFWXl2FIAHxunMTe0rpVCQeSkOIWalaDR80COnsUe+W8ZhACkCQzipYgBUEYYRkkEcEUs8DTIMwe44eTyry63VYg3Gb3s5JCJsQj3HjMgYgSwas1HyJyaQr0yECSbLO6ntE+xI4aiKSzgP7QEmX5h/gUazF5awZ8lPMV5zI4PAg4tBKxc0rum4iIiIiIiIjImirNBLp7fCEytp/GXW0O2dtjcen4bXXOLtkXUHYYYx/2ngCCwg3ZQCHo1hZISVor5w3WYvIkQ5vYxjxLSGw3e0wQrmwtruejBZN2F9f3WXMUGQ1d0ErOlmVf1hXAzavMoJG965lZ8yGSsoPQZ0IMQt1SsIIBHyIiIiIiIiIqhyquCQQUHlmEkx/H4vjH03DxyDXZaic7AyP75u1GRssArQvWkHAEZZsEbkyIjBtDl6uxnXSyVaPrFASfs0nmXc+EluHGbUR9Ih+4w8vekb/WfIjFJ/wwVmxbWgaRvetZ+DQpBe6d/HByTZwdwTIiIiIiIiIiomJVHgQSGUBFNzJReCNPzttJzbrxQze7Ai5rseWQO0InDMLE7u5WsoC0ANDYJruNXa4WW9QL0h8S3crCS9TR0bpgye5g6qOMkb8s7Js3UjueCPJYG01Msnc9U6Ib2JWzVxA0xP7AERERERERERGRcB+CQBUlAjtA0Jh4s3o/om7PbCsFj/cdOAl0CkcQrNcRatVEB/3VDDknuoyZZwIBGYgdlYQrnaKNgSBtn8PNj19B5e8aphWENhZ/tjRkFsLdUrBlUpJa38jaCGlERERERERERLZUOgj06+1buKs+bouBwKy4hULjOrdkm3VqdszWKwgaY+iOpTyGAFus1b/ZE4fdZ4EM5dla16hPJ2kBHm0/w+GSbVkTSFiLyUtTALGeyMZR9hVleXzTLB2zrmIlR+My7X6WGAYkjZLnpp5r8QheNtczIbp+qeclRgczFLBWu4HtQ+yaFLiHyWCZxb6JiOhxFYqYhK+wdetWfJUQo8wREREREVWtWn5+ba3HboiICPn5d+QUPUytW7fG6dOn5Vw11XM6Pp8QDC1vVY/keW9i2k51xoZgRP05Cj0CGuDUwkFlrFs5wSNnIyq0HRqcWIBB03fL1kfFg7sPRERERI+7R6g7GBERPYqaPD8Qo0eP1h4Du6GJbKcqtnMXki8WqJMFF5Oxq8xgRiACn/GGq6OjnL9/AgMD4e3qiPt/pIp4cPeBiIiI6HHHIBAREdnmEoyXnm4oZ+j+2o24qNcQFhaG16LilDkiIiIioqrFIBAREdngguD/6giX2oW4ePGqbCMiIiIioscVawIREZWiJtcEcgl+C291dEHhxb1Yd6o1hrzgCdw4ig3r9uJBh4QedE2gqMVb0b81oD8Qhzcta+AYavdcT0Zc5DRjxo62jVbLJ+72GMwY1QP+HnJkSn0mkr9YirjPUmE+TEEopifGILiRnDWw2LfRyEXY+rqvnCld+pdhGBcvZ8otCou29oddRzq9EWFjE+SMgQ6Bb72HMf2eVbuRqQr0yDy6GatmrcZ+a2M1KHQdBuC9d/riWW9XODpobQU5mUjdmYgFn+xGjtZUBffBFaHRUzGsW2t4NJLnV6hHVto+bFgTjy1HbJwgERER0WOOmUBERFSSUweEBrkAdy/iux1HUfrYjlRMhxZ95mPl1D7FASBB543gYVMw5XWTtmpLh15Tl2P2sK7FASDBUQfvZwZgyvLp6GXlNuh6TcfyOUPR1ac4ACQ4uir3LiIa43vKhkrzR9TiFYgJ9y8OAAkOOngE9MKYUZGygYiIiKj6YSYQEVEpamYmkBM6vD4EXZoW4uLeddh89BbQri9GMxNIU2omkJyBHmkb4jDjk2QUdBiAKROHItBVaT65EWH/Y5k1Y8KQ4WIrE8iMIVvHnpHEKqfU+2FB9/psrBwZCJ1yXulJ8YhbuR2Zelf49o7E+Lf7wFen7OdIAoZP2miSFeWNMcuXoU9zIOfIaixZvBn7zytLdd7w7/4yIvsF4+4XozHT6jWW8z6Ez8bn0cr5FWRi+8dxWLUtXc0wcvXrih7hbyCi2TEMmlTKa0RERET0GGMmEBERmXEK7IUuTYHCi99hhwgAUTnlIHnBcLz/SbIaXNAfWY+Zu9O1RU29EapNVVPeGPaKCAABWdumYtwSEQAS7TlI37YU46ZuR5Yyp/Pvhr6i2cgXHmr98QKcS5YBIEGfibRtCZg2xlYAqAI8G6jnh6vHsU0GgISck/uxccH7DAARERFRtcYgEBERFXMKwEudPNgNrBL0P6zCtO3mNWX06dkmWS/V2cto11w8ZyL5kzS1xUxaCs5dV54dvdHOrHtXMo7/IobHd0TgkOWYH90Lvk20JVXuSKYaiIJnL8xYOgUDunhrQSEiIiKiGoBBICIikpwQ8FIXeNYpxMUDO8AkoAoqFMGMGqp7M7ipE97o8/lWbN1q+bBSBFulx/qpS7E7S7l3jq7wDx+PRau34vMVizD97V7wrsoozYE4xCamqUE5nU9XDJ26DJ9/tRbL/jwe/Z8VffaIiIiIqi8GgYiISOXU7iV09nRgNzCquDp1YFJquXz02xE3YhAmf7wdqedzUFAI6Dx8ERwxHstWL8P4LlUXCUpb8z7eHBqHjQfSkSWiQY6u8H6mF6L+tBZr/9wf/tpqRERERNUOg0BERKRq0dpT/QLv4NkNQ0aPxmjThygKLTQMQIRs69tOa6pxnpDPVNLOTFxSJ9KxMSwMYTYftgo465G6aQEmjxqE1/oOwrT47UgXQZr63ug1KhqB2kpV4+puJEwfhxFvhuHNUQuw8ccsiBwu12eGYtRb2ipERERE1Q2DQERERBZuFmhduurU1zo3GflHYdHo4EeshkwdOFrtYlWFCrWnEvejhGRkqgV3vNF+SGXvUg6Sv1yAcfHJWj0lD28Eq+22VPw+6M9vR8L/jsX2DDHnCI+2XdV2IiIiourmgQaBBs9Zh4QJIXKuIkIwcfk6zB4iZ4mIqMqkJS3DsmU2Hv++qK0khoiXbZuPa03V0fFL2phRjv59ERMq6sTo4N1rPJb9uT9866uLHgGGgIsjAt+YfV8LHCdfUA8Exw4RmB3ZtZQaPanY9KNY1xH+kSuxaHx/dPUz1NlxhW/3/hgzbRnWzo+SbQZRmL92GaZHK+sHFF+HrnlXDOjZRpvPylSu2Jry3YfQycuwYm4MBvQONCk+LYawH4lANeGtAFmn9qutRERERNVNLT+/tr/K6VI5uTUCsq+XMlKME1zcgNxs22uIIFDo1SWImrdPtpSXCAJFw2XPQExeI5uIiO6j/Pw7cqqGa9dX6xImgkDr9uKqbH5QWrdujdOnT8u5B8AnCosW9IevlQI3OQdScfO5QHhfT0Zc5DTslu1Ri7eif2tAfyAOb043tEo9p+PzCcHQWWxjbJeztqR/GYZx8XLGhPfbi7AowlftxmfJ1jYVUsr9wOmNCBtrOqy6v3Iv5ij3opTqQCW2Ufa/Vdm/nCtJDLs/qsSoawbluQ+h0z5HzHO273iBcm6TlHOzMrYZERER0WPPzkygTnh7ylxMf6c7nGSLOSe8MG4W5n44WFnTOpHBE94S0HWKRmLiLAyW7SET4pX5ddpjziDZqugegwRDu7r+IMxOjEZQQ+V30TClbXkMKpNTREREZFNGAibFbkF6jslIXzmZ2L9qMkZNT1drxzwKMj+ZhGmr9iPT9DzvB3E//rAa+zO0gs2lS0PC2BGI25Bc4rwKrmch/cBGLJiTKFsMEpFgKAhtukmBHllHt2PpJNsBIKE892H3kiVaQejrFuemvL7JG+IwggEgIiIiqsbszgSCU3e8P2sInkxbg2kf7zHJCNICQANaHsP6PyzHv0sZUKZEJtCQWUjsnovFo+IgWoqX+2B2Yihyl45E7B5tVQ0zgYjowWIm0KPhgWcCERERERFVQ/bXBLq1B/M/XINf/IeYZAQ54YV3/mhXAKikEEzs7oOMPVoASPj0aAZ0TXyUqQzk3tDBRUwSEREREREREVGlla8wtAwEnWs7ANPfeQkviQBQm1MVCAAVU7t2Gbp9hfkAbl4IwT7EjkoC5DIWgiYiIiIiIiIiqhz7u4OZcuqOcTP/Gx2KvsOacgSAzLuDia5dw4E1ll2+LIlaQIauYewORkQPFruDPRrYHaziDAWry8NqcWsiIiIieuxVbIj4W3uw6P0RGDmh4hlAwD7sPQEEDSmrwDO7hhERERERERERVVbFMoEqSoz4NSYIOmQgKfJDfKo0iewgMWqYQcZWkeUjsn/CYYj76A9ZFJMW3cZupBgLShMR3S/MBHo0MBOIiIiIiKjyHmwQiIjoMcMg0KOBQSAiIiIiosqrWHcwIiIiIiIiIiJ6rDAIRERERERERERUAzAIRERERERERERUAzAIRERERERERERUAzAIRERERERERERUA9R67rnu5RodrFUrL5w5c0HOERFVb7/8clZO0cPE0cGIiIiIiCqPmUBERERERERERDUAg0BERERERERERDUAu4MREZWC3cEeDewOVt2FYnpiDIIbyVmD68mIi5yG3XKWiIiIiCqHmUBEREQ2eL8eg0UrPsfWv0TJlkdJMKL+vAxrv1qL6T1lExERERFRKSqfCVTfH45t28Hx159w88gp2WjqCTh0eB31ap1B/omfce/2HdlORPToq3mZQE3QbWAEAhrKWWvOf4tlSWly5sF4WJlAodM+R8xzOuD0RoSNTZCtj4ooLNraH77QI3nem5i2UzZXByMXYevrvswEIiIiIqpilc4Eqvvim2jy7FNwDn4TLh2ay1YDEQAagSbB/mj07Cto+mKwbH+4+k/+CHPf6SjnKqnzKMxdMgtjOst5IiIiIiIiIqJHUBV2B3sCTsFD0Og3LnJe2flvhqBJcDM4yHn7vIrJSz7CEuNjAvqr7R0xJlaZjx0F66EkbbsqC+5YipiAJZNflTMmDi7HB9EfYulBOW+NGigyXId97A5UVWDfRERlu4GjG5dh2TIrjwecBURERERERFWj0t3B6vaeisZeckb49Q5ufhuPm+iLxi/6oE4t2S5c2I2L2/bIGStEoKWnF87vfA+zN8i2zqMwueMPmP0xMCb2DbRCfWQfNFkuBb8zC8Ofro9bP63BBx8flq3WiQBLl5yy1zMjzq3tSUTP/odsKAcRqBnmjO+i52GjbCqL3edYgX0Tkf1qbncwEQRah71XZPND9uC6g9koUGyN1a5KOgS+9R7G9HsW3q6OWlOBHplHN2PVrNXYr9eaLOk6DMB77/TFs96ucJR/OSnIyUTqzkQs+GQ3crSm4m5Sdkj/Mgzj4uVMZekC0WfkMEQ81xoejQzXlYPMH3chcUkCdl/Vmgxcn+2PYa+/jGB/D7jWl+sXFiAn8wds/vgjrD9i40YYlLM7mK5DH4wcEoEQPw/ojKdn5f5VVjnuQ9TirejfWo/kBW8i7sZQTBnRF+2e1Gmvrz4LqVsWYOaqVJjdCXnd+h8W4M3Ymxj64TD0DfDWrqlQj6wjm7FAeR+llnH7iIiIiGyp0sLQv4pwUq16aPDiOHgYAkBKm31Rplcxuacbjq6yCPAcXI7ZJoEQEYBq3tYyI+dV/PbpbBz96bac14hAijGjyFYGkQjuKMsnR8h5NbPGsJ0dGTYWmTimx1QzecT+h7WDE7zwkqHN2npGWsbTS80Bp6eHyHPQspzMz3EWxkRb3zcRET0MOvSaqnxmDetaHAASHHXwfmYApiyfjl462WZC12s6ls8Ziq4+xQEgwdHVG8ER0Rj/sIs++w/F/JWzMaaXf3HgQ3B0hfdz/RHxupw3isKf/hSFXs94FweABAdHuPp0xdA/L0bMc7KtCvgPmY+Vc8agV0BxAEjQ7l8EDB+dlVbu+yDo0Kyb8vpOHYDA5jIApDZ7IPCt6ZjztrdsMKdrEoLpy6dggHIPjdfkoIOH8j6aPisK1rciIiIiKlsVBoHO4/q3GbirBoKU/6kBIJEV9D1uqcvLEOGH5jczkFxatyrh8E4cdXnOrAZP8DvPofn5k0iW85pX8RvsRnT0e8pjDY6iHX5nGSQRwRSzwNOrmDzMB2eUeXW7ncBLNruflSSykV4yHvM9LYtnwzxErzqu3IML2CHbrK5ndBhLJ76HHeehZjVFqxk+/8DsnRfQXDlfcS79X2oH/PQFli4puW8iIqqM3ZgWGYawMO0Rd0CmXIjC0LLN+LDIUNG9PgUju7gqU3qkJy3A6DfFeoMwbuEWpIvduAZj5NT+MI8DeWPYG8EQW+UcWY2Zo97U9v3maLy/cCOSM7JxV1tREz+u+PhhG5GuNorC0Ia24kfVZAEFI2biAPiLky7IQuoGw3W9idEfLMDGH7Nws0hb08z1TKRuT8DMD0bjTfV8xH3YjswCZZmDB7q+NUBbr7Kei8HESH/1nhZkpWLjAnk8ef9SL97U1qu0Ct4Hhfez4vU1eU8MjcP28+JGOMK39xj00VYz5xOMYOVNoT+5BQvU98QgxG3PhLqV38sYE66tRkRERFReVZoJVJi+Btf2nUehOncP+n3xyEsvx2hguVkWgRxrDiP5DBDwkiEbqCOCWwFHd1h20/oHZhu7boltzLOEgGcxeVg7ZO8sruejBZMOGOex4STON3C2+y9uyVeyARePMoNG9q5nZsM87Mhth9++MwpdXI7j7wz4ENF91RAB/Udj9GjtETVsCCJ6d4N/4/JVeas5vDHslUA1GJG1bSrGLdmOTDV+lIP0bUsxbup2ZClzOv9u6CuajXzhoY7EVoBzyZux/7wMOukzkbYtAdPGjMbMhzjql25IJLp6KBMFmdgyaQQmf2K4LtHFbTsS/le0iXlTCRgXORqTF2zE/qOZsruTuA8L8P62THXO0aMNuqpTlaHD0Le6Qj29jC2YNGIyErbL48n7NzlKaRPzlVSx+2CQg+QFw4vfE1d3Y8F7G5EmIjq6Ngi2kemVc2ABhv/PUmxX3xM52L3gfWzUNkKbZ0PVdYiIiIjKq0qDQELRf9bg8vp4XFq/CNf/kytb7WRnYCT54wM439xP64IV0RMBuSaBGxMi48bQ5UrUCzLl9HQ7ND+/u0RtITQPNW6zZEkomsMNzewd+WvDPKw844PhYtvSMojsXc/Cxh3H4fa0D85sWG5HsIyIqOo41HNCk5YBePGNoXitQ2njx9dUL6OdOkBmJpI/sVI4Oy0F564rz47eaGf2pT8Zx3/RskIChyzH/Ohe8G2iLXkU9H2mtXJmgP7oZiytgnrg+kJxrYraddT9Vk5fBLVWzw7Hk5bifpYrr8x90B+Ix7TtWijMSL8L59T6QTq4WSvxdD0Z8dO3ywCagR67MrTqRjr3NuozERERUXlVeRBIZAD9qr+EIn05U7DVrBsfBNsVcPkH/vWTG7q88yrGdHazkgWkBYCGux4wdrlaaVEv6NZPu3HUJbREHR2tC5bsDqY+yhj5y0Lyxx9qxxNBHmujiUn2rmdKdAPLPp+NgAj7A0dEROVzFXvXWYwG9rc12LA1GeduiOWO8HguDMHFA0GS0L0Z3NQJb/T5fCu2brV82Co2rcf6qUuxO6tAubWu8A8fj0Wrt+LzFYsw/e1e8DbvO/aAdUUbDy1Ucylji/psL1GoefzcFfh8g8V9sLOotV26t4F2epeQnqS23CcVvw+2ZeKmTJRu4BqoTdgh87b83UrnBvu3IiIiIip2H4JAFSUCO0DAsFlm9X5E3Z7JVgoeJx/OAJ4ORQCs1xHydq2PWzla2rnWZcw8E0j8ArZ04m5kPz3EGAjS9vmG+fErqPxdw7SC0Mbiz5YiJuAll+P41+ydan2j31ZZpUsiojLcvYWrmYfx9RffIUvUPantgmZPaotIqlOJzBb9dsSNGITJH29H6vkcFBQq3/E9fBEcMR7LVi/D+C4PKxLkiDoV+C1BK3QtCzVbfvRWpcrc83Kp2H2wV0HeKTlVDrdvogJbEREREVU+CPTrnTsolA/ro4DdNlnHsi6POTU7Zmc2AoYZumMpjwjgX9bq3xxcju/OA+eVZ2tdozbO1gI82n7eQKNca8f+B2avOg6I9UQ2jrKvDyyPb5qlY9ZVrORoXKbdz5b0BHZMlOemnmvxCF421zMhun6p5yVGBzMUsFa7gR3G0g3H4dZTBsss9k1EdN8UZOGqXZX+a6CdmbikTqRjo0lx5pKPNzHNao0fPVI3LcDkUYPwWt9BmBa/XSsmXd8bvUZFP6Ssj93IvKZN2Z+tUlzoGvp0bFk4DoNMr/9LrZR1lTDe8wZwe0aduE8qch/KEgrvxuK5APrrFl3FShHq2Ux9LriTbdFVjIiIiMg+tZ57rrt9I7hLrVp5qcO0ExHVBL/8clZOEZp2w8DXA9AQt5C2eQ2+vSjbH4DWrVvj9OnTcu7B6Tp1LaaIEb8ubsfoqAUw5JeWFIiYFbMR6lGAtMRBeH9NFXxF7zUdn48Phk4NLI2zUuA4Cou29ocvCpAa/xomfymbq1BgzArMDvUA9KlIGD4ZG8u8LMM5AZmb3sToj803cI1ehrXh3mrNmziL0dXMjFykdR0rdT3DPVdO70gChk/aWM7AiA69YhZjjLIDx9tZ2L1sLOIsa/dI5b8Pyp1YvBX9WyubHIjDm9PNr0D3+mysHCkKiSuv7ZvKa2vYX2nXreuP2SujEKgD0r98E+Piy3e1RERERMIj1B2MiIgeRQ5OTdDimVcw8FURAAIKzicj+QEGgB6m/aey1GG54RmKKeNLK9qcik0/ivG/HOEfuRKLxvdHVz81H0bhCt/u/TFm2jKsnR8l2wyiMH/tMkyPVtYP8Iah45eueVcM6NlGm8/KtJrxCqU1UxxSOWbgG7MxoEvx9lUl9e/KMcSELhBRCYsw/vWuxjpFrn69EPXnFZj9tjavOYdsUQBb4dFxJELV+6WDd5f+GP+Xz7UAUJVJReIPWlhO1yEKK/8yHv2N90C5572jMDthtnKHbdBFoq8IAInp+h4IfWOYzdFAy38fitVxa1P8XtB5o2vkdCwepo0kpz+woTgAZMrRDW26+2oZVer9G4Dpi4eqASARINrAABARERFVEDOBiIhKUfMygfzRd/SL8JRzlgoufocvk44gV9QGeoAeViaQ6LYzZW0MuhriOaZKZGv4I2rxHPRXR6yy4fRGhI01zekpzpyxTgwvPqrk6FKS99uLsCjC12ptnPQvwzAuXs5Ugv+Q+ZgR6W8zwGR5nNCpaxEjsqesua6HvpEOOst713M6Pp8gsp5KV/Ka/DF0/gwM8Ld5djayqBQ+Y7BsaZ/iwE8Z2V7lvQ+GTCBbCs5vR9x7C7Df9KU1ZALZUpCJ7bHvY8F3DAIRERFRxTATiIiISne3ALnnj+LbL1dgxeYHHwB6uHZj5v/EYcvRLOjl6Oa2pSFh7AjEbUhGZo75ygXXs5B+YCMWzEmULQaJSDAUhDbdpECPrKPbsXSS7QCQkPnJJExbtb/E8apS2pr3MXzSauw/aXEPbucgc89qJKyT89LuGWOxdHsmTE9JXH9a0gKMjvpG1vGpKmlY/f5wTFbuQXqWXi2qbVCQk4n9qxKUO2xDxips2C0zvUR3sL/Hl9Ldr/z3wRZxXskb4jBilEUAqDTiGMr7Jy5qNANAREREVCnMBCIiKgVrAj0aHl4mEFHFlFYTyCa7aiERERERVRwzgYiIiIiIiIiIaoBafn5ty5UJ1KlTRxw6ZGXIdiKiaig//46cooeJmUD0uGEmEBERET2KmAlERERUjYlgxNat5Xt8Pi1Ubk1ERERE1QmDQERERERERERENQC7gxERlYLdwR4N7A5GRERERFR5zAQiIiIiIiIiIqoBqj4IpPNGnVYvoH7TZqhdS7YREREREREREdFDVXXdwXRd4BbxOpp5OBVHln7Nw5WvFyLr6CXZ8PgaPGcdQq8uQdS8fbKFiGoCdgcjIiIiIqLqomoygWoFwC1yEDxlAKjo3l0UitBSrfpwcLirrmIPEWhJmBAi5yoiBBOXr8PsIXKWiIiIiIiIiIhUVRIEqt2pD5q5atO3UhJw7KP3cPz/ZiL9qwRcPHJNaXVCbWd2DyMiIiIiIiIieliqoDtYHTR86yO0bKFM3j2B039ZiFvKHuu8NAvuVz7ExSNind7w/OAF3Fn9IbKzxHxJIoMnqKGcQQaSIj/Ep8pUyIR4jO2k05rPJiFy0lptunsMEsYEQVsi1j+KgMRw+KjzihspWDwqDjY7bw2ZhcQww9qG4w3CbJN96A8Vd/+y7A5mdl5WjyWykqKN16Tty0fZfyhyt56EX5g8d9Nt1Wtywe6tQLjh3EyvmYgeOHYHIyIiIiKi6qIKMoFaoY6LnLx9HXdFAKjbFLTu4AyXnnHweGEYWn/QB25whufQxfDsINe1EDtqIJLOasGSSBkAEoGasW1PYnHkQKVNWY5w2V1sEGaP8cPJpVq7tv5aTI5cgpQbQMZWpa3MABCQJPe7+FCubA8AxLaifWkK0Gk4JnbXFplSA0Cm53VCLjDSAkB+J8S1iHWScFIuAXQIUva5wrBtdhDGzhkklwk+CA84KrdTrsfNcM1ERERERERERBVXBUGg2yjKl5PS3b0zcfpIHnJ3xiBrz5c4u2wHcpGHrK9icem4XKlMIZjY3QcZe4qDOZ8ezYCuiciQyUDuDR1cjGk/5TM4QNnvVhloUuybF6dNr/kQk9eoTcCefTh5Q06bCUG3tkDKGpPzUrY3Czh1D4EfUrDCWER6LWKN03rzbZNSoG8ZgMFyXs1KMmb+7EPsHuWa24YoRyUiIiIiIiIiqrgqCAJl4vYvt7RJ59+gkWcddfLuvoXIOqFM/5qHwrwfcG3HDuRmZqLI/jrRKp+wdUhMlA/RRcrNCyEiODIqCZDLylcIOgRebnrkZshZM1phae14xV25zPnApeEVXNgjZ63xcYEu+4J5YMiWPRdwRU5alZELvZwkIiIiIiIiIqqoKikMnZ/8A26olYWc0WzgdDR//V149v092oydDjc1KJSJ24d34G65S2vokWLs8iUfxm5eovuXaBPBoHir3bZss5ZFpHXhctljOJbWtcw6d3iVdTw1WGWH7l5wv5GLM3K2hPIElIiIaoAew/Lww7I7GCrLshERERERkX2qJAiE7C9x8ftLUJN8ajnDpU1buPk0Rh1l2v23faDlBpXXPuw9AQQNiSkjmFLermFiv3r4hM0ydsEKmRCjTIsMH5MMIdGly2om0FocPaszO6/Byvaiw5ZxePo1R5HRMAgjjLV8BmGicVrZNtxQA0jZZkgQcGKfSZDHB6Em280O80HGURaGJiLSFOH1rrfh7nMZU+blo4dsJSIiIiKislXB6GAmmr4A12eCoGveHHXvXUPeT1/iyuESVZNtM474VTw6mBiVK7yltlgQRZ8nr7E9ipdx1K8yRgezOrqX6YhhNzKUs3BH7pqRiN1TcnQws/NSR/DKMGYSaXWFzM+x+LxDkXvoCoI6ySUlRjxzwclD7spy7dzMro2IHrgaPTpY7YbwDOyIzm1bw7WhIxwdZPv5b7EsKU3OPAS6e0j8JAtdXYG87z0QNu0JZMpFRERERERkW9UGgagMMgi0VAsslWAYIt4wOhoRPXQ1NQjk4BmM1/6rI5rUkw2mHnYQSPDPx465WWjjWBdHV3mIEnFERERERFSGqukO9ogS2TrGotKGh9lw7EREVIJ7F7wVrgWACrJPIXnrBqxZsQzLlsnHww4ACWl1MXWLizKRj4A3bmIC6wMREREREZWpWgeBPp1kKPJs8jAOv05ERCU5oUO3DmiofDrc+PkrrPh8Bw5nXsWtArn4EbJ/WQPsynIAdNfx2ohyJbUSEREREdVI7A5GRFSKGtcdzL0bBvYPQMPcw/jss2TkyuZHlfewPOwdqJzllSaIGeyEz2Q7ERERERGVVK0zgYiIqHwa+nhBDIx44+zJRz4AJGR+UQ9HRZaS+2289oLWRkRERERE1jEIRERERh6NRZ0d4EaBEzq+8BreGhGF0aNHa4//HoLXXmgDl0fpk0NfB5lX1Ql4P6W2EBERERGRDeX+VZ5dwYiIqq8n5DDwnsF9EdzOAy7GceEVdZzg0e4lvPW7bvB4ZAJBtfDDBSd1qpFHofpMRERERETWMROIiIhKupOLUwe/xoY1CdqIYPEr8NW3Z3CjSFnWKAChnUSnsUeEjP04uzEIRERERERUGgaBiIiohIsHP8OOH8/h6i0ZWCkqQFbadmxN1SoFuTT1Up+JiIiIiOjxwSAQEREZ5d3UxoJ3amA90yf3xi1twqmhWkD6UZKXbdJ1jYiIiIiISmAQiIiIjC5eVqssw8XbD1qlHXOeTbXC0YW5V3FDnXr4nm6mBaauZzEIRERERERUmrKDQLogOD03DO6dA2SDpTqo0zkKbs+9gLo6a18ZiIjosfGf4zhzV3l2D8Zr/+UPD0etGXUaokXn1/Cyv/h3/gbSUs5o7Q9dAdp4iueGOPW92kBERERERDbU8vNr+6uctkr35mK08hFTd5H77SKcP3habdeIAND7aP2itzKlyNiCnz/fpi55mAbPWYfQq0sQNW+fbKmE7jFIGOOHk0tHInaPbCOiGiM//46cqjmc2vXFWy94whD/MVeAq4e3YkNylpx/uLyH5WHvwFzgShPEDHbCZ7KdiIiIiIhKKkd3sDpweXEcPDs0lvOAQ4dxxQEguw3C7MR1SDQ+ZmGw2h6CicuV+eUxypQ12nYJE6wvrbQhs5A4Z5CcMbEnDlGRZQSARKDIeB32EYEqu66lAvsmIqqMW8c3Y/UXe3Hq2i0UitHAhKJC3Lp2Cnu/WP3IBICAXzElVHRKc0Dm9/UZACIiIiIiKkM5awLVgVuviWjWrjEc2r0Ln16tyxcAEoGWxHBg60BERsrH0lwEGIMheuW/IPQZImdNhEwIhZqQRERE913htaPY8cUaJMQvk0PEJ2DNFztw9NqjMwy798Ab6OGpnM91F6xaXEu2EhERERGRLeUKAhWJjmO1nNAkfDp+E94W9cXv3Eqb4Q/FpRuE2WHuSFk6EJPXyCZhTxwmm3TbOnkiAz4Blhk5g9Cn0xWkHNLLeY3IpjFmFNnKIFIDT+sw2xBYUjNrDNvZkWFjkYljekw1k0fsf0wQdPBBuKHN2npGWsZTeEtA1ylanoOW5WR+jvGYOMn6vomIajz/fKyMzEVd1Mfh9TrEy2YiIiIiIrKtHEGg07iYdAK31UCQsqEaALqFq0k7kKsuL8OQAPjcOIm9ZdXVOZCEFLdQTOwu5xVqFtDZo9gr5zWDEIAkmVG0BCkIwgjLIIkIppgFngZhtlrfR2YhbQXCbXY/KylkQjzCjcccqNUcWvMhIpemQI8MJMk2q+sZ7UPsqIFIOgvoDy1Rln+IT7EWk7dmwEc5X3Eug8ODgEMrETun5L6JiGo83T0k/vEq2jg6IO97V7y7UbYTEREREVGpypUJdPf4QmRsPw0xcIwoFJ29PRaXjt9W5+ySfQFlhzH2Ye8JICjckA0Ugm5tgZSktXLeYC0mTzK0iW3Ms4TEdrPHBOHK1uJ6PlowaXdxfZ81R5HR0AWt5GxZ9mVdAdy8ygwa2buemTUfIik7CH0mxCDULQUrGPAhIrLiV8TNuYauroXIP90E7057AplyCRERERERla6cNYGAwiOLcPLjWBz/eBouHrkmW+1kZ2Bk37zdyGgZoHXBGhKOoGyTwI0JkXFj6HI1tpNOtmp0nYLgczbJvOuZ0DLcuI2oT+QDd3iZZB2Vas2HWHzCD2PFtqVlENm7noVPk1Lg3skPJ9fE2REsIyKqiWrh65/rI++0Bz6YUBe7ZCsREREREZWt3EEgkQFUdCMThTfy5Lyd1KwbP3SzK+CyFlsOuSN0wiBM7O5uJQtICwCNbbLb2OVqsUW9IP0h0a0svEQdHa0LluwOpj7KN/T7vnkjteOJII+10cQke9czJbqBXTl7BUFD7A8cERHVNLuWOePp39fFPywTQImIiIiIqFQVCAJVlAjsAEFj4s3q/Yi6PbOtFDzed+Ak0CkcQbBeR6hVEx30VzPknOgyZp4JBGQgdlQSrnSKNgaCtH0ONz9+BZW/a5hWENpY/NnSkFkId0vBlklJan0jayOkERERERERERFVVJlBoF9v38Jd9XFbDARmxS0UGte5JdusU7Njtl5B0BhDdyzlMQTYYq3+zZ447D4LZCjP1rpGfTpJC/Bo+xkOl2xrfxJei8lLUwCxnsjGUfYVZXl80ywds65iJUfjMu1+lhgGJI2S56aea/EIXjbXMyG6fqnnJUYHMxSwVruB7UPsmhS4h8lgmcW+iYiIiIiIiIgqopafX1vrsR0iIkJ+/h05RURERERE9Hh7gN3BiIiIiIiIiIjoYWEQiIiIiIiIiIioBmAQiIiIiIiIiIioBmAQiIiIiIiIiIioBmAQiIiIiIiIiIioBmAQiIiIiIiIiIioBuAQ8UREpeAQ8VSjdVyC5/v4ypliWVt648xhOVMaz4loO7AH3OoVIHv3Rzixd5dcUBV6wOPdiWjloseZhAhkXZTN98ODug+G4+Qm48eFU5Evm6uN+/p+qFojp2djNJzx+rQnkCnbiIiIqgNmAhER0WMmGM594tF+UiI8PGVTjfTo34e6HTrDzUmZqO0It449UVdrrnF4HzSPy30YOf0apjx/E+6/yUdvnWwkIiKqJhgEIiIiqQm6DRyN0aPteIT7y20ehiA07ugNZ0dHOV9TPYD7cDga3/+pt3zE4kyubLdT/pGDyL6lTBQVIPvwzsc3s4X3oUo8Dvehx+g8fPC8HihwwWd/1CFemSQiIqpOGAQiIiKi++NiLE7M643vZ/Z7pLv+3He8D5pH/T7438GM/rmoCx32L3ZGTJpsJyIiqkbKHwTSeaNOqxdQv2kz1K4l24iIqBq4ir3rlmHZMluPz3A4W6xXiIunT6tbEBFVD78i7n9y4a1M5X3vgshvtFYiIqLqxv7C0LoucIt4Hc08nIojR7/m4crXC5F19JJseAC6xyBhjB9OLh2J2D2yjYjoPmFhaBOte2HEf7WC442j2LBuL67K5gfCRmFea0oW69WhttdAuHcPQdMWzVC/nvYXkKICPfJO7MSZLUuQX6CtaeQ5A09FBaPB6Q34/tN4wCMaLd94GR6NHVG7CLh9PhmnvpgK/U25vlE71O82Ci07t4NzAxt/abFW9NclEu59+qF5C1fUfUKZLyqA/vxxnN36J+RdNumPUqn7UFmGQsxl7Ntw7+Sswc2Dsfh5W+kFkdV1thfA5bWRaOmvvFbKvSi6p0fO4S9wensiCpV7X6yUwtBeE9F2kChADNw9vRkp65ZYbFsZ9/8+QLzv1h2ELnSs8l4SXf6UZUV65KZswsmtq0pci/PgbWjfWt6HS4HQ9RqLNh29tftXkIOsfy3G2R/2ybUNKvBzYfo6bTsIB/9JaB0WDFfxXlfes3mnvsHJvy/BXdPzq8h9MLD358KUYw+49BkG77bNoJM9JQtvXsKlgxtwcf9m2++DvjdxYmw26ha4IH6AM2ayGxgREVVTVn8/LaFWANwiB8FTBoCK7t1FoQgd1aoPB4e76ioPzJ44REUyAERE9GC5IDi4FRxFFtCPBx9sAKiyPCeh/dsRaCW+FMovukJtRx1cnuqLwHc/QgNbn4YuLaB7dgk6je6LJ0UASLQp/1e/RTAChk+1KGzbTvkyHovAnu3gYisAZI3XVLQfOwy+reUXXaG2I3QtAtF+VAI8vGpOZVonr35o+e5U+D+lBYCE2k/o0LjzMDzVJ0JrKEvT9+AnA0D5JzYg5dOqDAA9ILVbwOP3sXi6mwwAqW3K+7VjJIJ+N9LGe0sHJ0/lfTpG2a6zFgASaju64smwiWjVQeS4mKjEz4WTS3vUD0tAp98Fo7Hhva68Z53b9kUHm+dXThX5uWgwEq3GT1TfP4YAkODQoBm8ekajRZBssGLKb2+qP89Xvm/AABAREVVrdmUC1X5W+UDt4a1+qN9KScDpf6YoWyq/oLVpjNsnjyqtTqjt7AzcuIQiDjhPRNUIM4GkNr0Q9VIrONxKw+Y13+J+jsZdNuWL3h8i4AE7hwb3nIq2/Zrh+vebcPXUQRTezFE+2LxRx38sftM/UP2im7tnItJ2pcoNFIbshSKgSP3wu4SzW5cg61gy4KMsG6wsq12AX77oh7PHtE3w1EcI7t8ODkU5yNy4GL+k7UMRTI8j1o9U1jf5hlk7Al7jR8Jb+SKtP7EZJ75aifw7yvIGL8Olzyi0batD7ZupSF0wEbdLBDLKeR8qzc4MGAtaloqdGTCS/tgGpG2Kx917gdD1mYSAIFfULkrHsZnRyJPrWM0EEkGAMco9qSf2kYhjX6xCobZyFXqA98H4nnBE3W5xeKqn8n5SXu+zqyPwS4ZcSWHYd5HyHqmtvF+N2xW0gcvAGfBv7Qhc3oXkj2OL70dFfi4M52f4uchNx4kNc5B7IRsOz8YhKMxXOb9LOLlwOK7ZKJ5t132o4M9F/T4bENhRh7vnvlFe+5W4La4JynvHoydcQ95AvVORuHBEW9dcAbZuvoQAxwbYNc0Nw7+XzURERNWQ+AgvQx3ofLUAEO6ewKV/pWitPd+Fa30RABJeQLPR78KlqZy1ahBmJ8Zj4oRZSExcpz5mD1Gah1jMG4huX7LdbJnaPguD1Rm5zyEm684ZpC6xJmRCvHF/ictjEKK0DZ6zDgkTBmHictku9tddW994LJNzLG3/RETVUxN069wKDspUVup3DzkAVAEXZ+DEx9HISvlG+6IrFGXi7rGJOHlYC8g4e3RWn0sQH3630pH28XAtACRkzME59Qu4Ixp6ik8STQN/X/Ue6Q+vxIVj+9Qv5ObHcYRbm95iVaPanXvDS/miW3RB+dK6fon2RVe4+Q1y109BuhrYaIemD3Mwtgfs5sGP8NMX8bgruiIVpUK/ZSeuiHtZuxnqlzYU/gMJAD046n0wvidykL93PP6TJm6KDo39e6jrWBIBoLz9Jtsp9y93ZyrUXotNWihbmqjsz8W1fUhdHI3cC5nKjB6FP3yB82rgpxmcW4jniqvoz0UdF+0Kb5zaJgNAQg6Ksjbg2kZbASDFC/fgLTKHbjviZwaAiIiomrMjCNRK+VCVk7ev4+6vyodstylo3cEZLj3j4PHCMLT+oA/c4AzPoYvh2UGua5UOQU2OIjJyICK3ZsAnbB0SA0znDcEdIOQ5F5xcqrRbWWZO2Wd3YIVYLzIJGS3DzYNJkggAjW17EovV9QYi6YRcoNB1CgXWGI51BUFjTI/lg3DDOUYuQYpbOBImFP/ST0RU3Tm26wL/hsrErTQcPGJZJOQxJ7MIahu6m5RwCenKF+U8s9o/euRflV9KnzDpc1KK2k/UkVPmGvhof2S5lrrcSsDiOG6eF8dxRMMW1r/0Vzt5yTi5zaIib9Ep3CpO/7GuwTC0jNICQDdT4h/7AJCoG1XiPijvu1vn1crsaNCkjfpsKf9n5dr/ZbHdxXPKlgo7fuMzKuvn4lYqjv51BvJNsnCAXbitnZ7ycyGfK6iiPxe3L1xST90tdCZ8e0aiTj07u1K2u6f8FqvIqoPP1AYiIqLqy45fCW6jyKx6JXB370ycPpKH3J0xyNrzJc4u24Fc5CHrq1hcOi5XskqPlKS12uSao8goMe8OL5mFs2/eh8V1f9Rltij7WBMHrdzhWhw9C7h7WAZpQtCtLUzWAz6dVzytP7TS5FhJSLnhgwBjICkDSZPkOSpbxO7JgK5tiJpFRERU/TVB52c8H98sIAOPkfAYnIhnJm3D838ofjzTuawviXrcLVH8WfmyvS0C3/+pt1l3llvns9QvoLqOw+HVPkTNyhDda+oGfQTfDiJYVIDs09vEqlII6jfRptzDNpidl/3nV82YBRXs17R3JJ5UvsUXZmzGsU0bHu8AUCmKDBkxDdzUn0lLd28ZojCm4nFGea9+/yfTrnRSRX8uCgpwz8prlfepOE5lC5JX/Ofi7q5YHDumR1FtHdy7DUOnmA3oFB0Pr24RqFNKvNbbQV6M8iTymoiIiKozO4JAmbj9yy1t0vk3aOSp/TXz7r6FyDqhTP+ah8K8H3Btxw7kZmaiqMrqRIuuXoYuWuHwka1lOWP466wZH7g0vIILhkBPqfbhgrXfoQwycrW/qBER1QCOHboh4DHPAnLoKAo7R6CVKDBrX+JOhRR9vw5nxedHbVd4vzEVnacoX1inxOOZfu3U+ipilKrzP5t+gignY8enMJXt8rYNyLqjvNY+fdG+98uytRq7dbPSga4H9XNRfpX5uTiOm19E4OCyDThz4hJu3wPqNPaGd8+R6BSTiCfbtpPrmVO7ghEREdUQdn3M5if/gBtqwWdnNBs4Hc1ffxeefX+PNmOnw00NCmXi9uEduFtl9VNFACgUuYbuYKKbl1xSccVZRqULgZebHrm2DujjAl32BWMWERFR9eWJLoEe6tTjmwXUF01DRbFa4O7FZPy8ZKSaqWB4/Hiw6sL6Dl2HoaUbcDMjHbk3i5NaxPDUF7bF4tCn8RZf3Iu7z4gCw6bnZfkocyjtmu5mPM6sTcZN5aY36ByNVs8GygXVS92mzdTnQqsZP+Xx4H4uyq8Kfi6y4pG1fjhSZ0Xg4CcbcPZigRqcbfnaKPO6SNL+2/LXYeXJYgw1IiKiase+v7Vkf4mL31+CmuRTyxkubdrCzacx6ijT7r/to/4SUaW6e8EdJpk7QwLszgQqFqIWe9bqA4luYjoEDdGKQQuDJxRP6zqFF9cimjAcQTiJvcasIR+EGmsADcLsMB9kHDV0DyMiqr6cAjvD30mZeBSzgNQISx08UU+ds61pkDqEtejWdfHrqbh5zbSzh66UWkDl1QNNnm2mfKhm4vyn0Uib3xsH5RfV5PnDkXnQ+pdV/YVL6nOTNsPU53Kz9z7UBBem4vjWdOV3FUd4hM1Aq47Wsz4eW7Uj0KS9CGEU4HLaJq2toh7Yz0XFVPrnwkiPogvx+OVv3yi/VSrqNUMDa4OYZDhoXeU87uIttYGIiKj6sjPh9q5aB+g/q/6OC0dOIDf7Fm5fzkTWjoX4z+ovteBQVdoThxWH3BFu6A4WICrzVM6nkwYiKTsIY+U+w5sUZ/PoD+UiQLaP7XQFSaOK6wWJI5/EcO08EsPhfmgJJq+Ri4iIqqvangju8KhmAR1E3lXx7AivsFg0aFzK3+6vZuO2OqFD406RcFA/9VxRu8VIPBmViKc7VlXNnWaoJwJm8IB715fh4BIIBzuK0hYmp+JaEeDgH4mnB7wHnUfx8OBoEAJd5xnwHfuRVrS2hHLchxqi8HAMfj6YgyI1EPQHeHhV1ev7gDk2g65FO62ulAjKNI6Ex38PU4dML8pOxiWzboUV8MB+LiqmYj8XPeA+fCW8e0aivovJ+o6+qN81COoYJwWXoL+stpr7pg4yRZy7/h10eklrIiIiqq5q+fm1VTt61VRiiPjQq0sQNc9KBy8xRPwYF+yO/BCfyiYiqlny86usn+tjxSnwNQx53kPNAtq89ltcVDNOHh21OyzBM69p3VksiS4kxYVpveE8YAnat7Ve9CM/V48nXHRwOL0B338aL1sVnjPwVFQwGiAdx6wV1C1Bh/p9Vqtfnq3+dUW5f/k5mTi/YzGupKXKRo2ozRLUx/q1aGyfg/33oWKcB29D+9ZyxpbcZPy4cCoMY0jU7b3BjoLWFtek3IPnlXtguS9ND3i8OxGtXPQ4kxCBLGNE0lZ7O+W8Y5XzVl7zohycWRGFrAuVC5o88Ptgy51MnFg5HtmXza/HcH43D8ba2XWwgj8Xpb5O1lXoPijK/3NheD/I2RIKlJ+JicrPhPURTGb85RKG+hcg/7An2k5+yKlQRERE95HV31WJiKgGq90K3TrKLKAjyY9cAEgoOhKDlL/vw5VrBSgs9fwykff3qTh2WCsSqxIBmWuZSP9iKn784pjMiKgsPW4fPIhceYy7t5Qvk8rDeGrKp23dxt7w/V3JbkqFh6NxSBSyPZ2DfMM5Kgrv6JF7IhnHPpljNQAk2H8fapLjyPt0Io6d1urAtBoUB2e169Nj4Ocv8PPeVFxTXk/z90IOrhzcgB8XjCwRAKqYB/VzUXHl/7nYhazPtILQ+jvq5aiK7hUg77Sy/rJhNgNAwtR/NVCDWnWfuoUZDzcRioiI6L5iJhAzgYioFDU1E4jKqd5ItHo3Ah71CpC1dSrO/GCe7YN6L6PxoGj4eTkCl3ch+ePYajuMOdHj6VcsW3ERvT0LkZfsibApT4DDxRMRUXVU44NARESlYRCI7GLoJnMzFanzJ1rNoqgbtgHPPKsDsvfh0OIZVV9Pj4gq5/nb+GH6FbjDCfvnN0HkN7KdiIioGmF3MCIiosq6J7ufNGgH796RqNvAVW1W1QuBrtsStJXFdm+e2ssAENGj6Pv6+GCjC/JxC13H5iHOX7YTERFVI8wEIiIqBTOByC61X4bHmPfQyk3O23D34i78/LdY5D/A+j12FTW2YH+B4ccH7wPZa+T0a5jyvB7QuyJ+bEPMfLSGRyQiIqoUZgIRERFVVtE3yFo6Eak7jyM3rwB3TYI8ojCtPisdZzbF4lDCgw0AEVH5xU9zQ3xqA1xJrY9VDAAREVE1w0wgIqJSMBOIiIiIiIiqC2YCERERERERERHVAAwCERERERERERHVAAwCERHRI69163JW9CUiIiIiohIYBCIiIiIiIiIiqgEYBCIiIiIiIiIiqgEYBCIiIiIiIiIiqgEYBCIiIiIiIiIiqgEYBCIiIiIiIiIiqgEYBCIiIiIiIiIiqgFq+fm1/VVOExGRhfz8O3KKHiYxRPzp06flXHUVipiE8Qj1dETBxd1YEBWH3XIJET3mek7H5xOCoZOzBvoDcXhz+sP/SY9avBX9W8sZo3RsDBuHBDlHRFQR3pGzMX9goPLvnx6p697H5MRMuYQeFmYCERERPQp69kCwp6M66egZjB491clSBCPqz8uw9qu1mF7mupUTPHI2lq39CmunhcqWR8mDuw9EVDW8X4/BohWfY+tfomQLPXqq4b+tPv0R85cV+HzzIjyK77zq+nPxckggdA7KhIMOgSEva430UDETiIioFDUzE8gBTfy7oEugHzycHeEg/1xQePMqzhz7DgdTL+JGkdb2oDATyJooLNraH77QI3nem5i2UzbfB4YsgUcla8Hcg7sP5WE9s0JxW4+s0/uwYU08thzRy0bJRrYICgqQc/EHbP74I6y33MZ4/aUpvjfBk5UvdN1dlfNIRULEZGyUa5TUH7M3RCGwfgHSEgfh/TWmx9Vh6Py1GOCvBS31Py7Fm/+7RZ02FTrtc8Q8V+JqrDu9EWFjDTknoZieGIPgRnLWmuvJiIuc9thmyz3SP1PG9+H9ywQyvjfMXvfHXJNQREVHIMTfGx6NtJ8NFBagIC8LqTsTseCT3chRmir+c/GgPZr/tlbKA3hvV0a1/LlQMBPo0cNMICIiMuEE//ChiHgxAJ4uxQEgwaFBE7Tp3Bdv9O0AF9lGVWk34qJeQ1hYGF5jV7Dqq74OHgG9MGbOSswf4i8by+DoCFefrhg6Zzmm97Lzy6MNyTuPq19EUb8dgl9Xm6x7PRjt6ivPBaeRstEi8KSLRLAIAF3XK7/SK7P+IeivLSGqkfyHzMfnK2LQ/znf4gCQ4OAIR1dvBEdEYzwzFamGykycjDf7hiGs75sMAD0iGAQiIqJirbuhW3PlF9iiG0j752dYEb8My5Ypj7+twVf7LuKWsopjs04IbK6tTkSlE5keIrCnPoaOw8w1yci6LZbo4K98MYzyUVczJ7JcDNuEDcK0+N3ILBALXBE8+D0EqysZJGCccd0wxB2QARvxl2Rju8lf8Q98g+NXxYQj2jzbR22ypv9z7ZQ1RAwoBRssY0ADA9XMI33aBiRnKRM2Akq7p79pcg7isRHp6hKRWWDarjxs/NU7/UuL9QyPxzgLiKoXXeR8zIn017q76DOxf81MjBsq36fiZz5+C5IzsnFXW71Kfi6IiCqD3cGIiEpR07qDNQkZiIinGqLg1NdYseOcbDVwRIfXR6BLU+Div5dh83HZ/AA86O5gpXbVMKSTW3RH0bbR0ubjbo/BjFE94O8hszaULwbJXyxF3GepauZEMRvdXmx1dRm5CFtfL73jj4H48jwuXs6Umz1djCSraes6BL71Hsb0exbervKv4gV6ZB7djFWzVmO/RVDBQNdhAN57py+e9XaFo/hCpSjIyTTrSqGq9H1wRWj0VAzr1tqk24YeWWk2umlVQKnvIf/xWDG/FzyUyaxtozFiofzLqI33lqAbMh9rlS+ajsjEljdHY6mNU7SnO0FgzArMDlWOrk/F0jcno2RHrtK7gkUt/tz4Xt/4rLavgiMJeG2S7c5lGnu7lxT/XFTufWw/XYc+GDkkAiF+HtAZ3rLW3nsqHbx7RSIqPATtmyvri4wpQXmPZ53chVWxS7FbDbTZVt7uYK6hURj/ux4INPnZ0GelYd+XqxC/yeTflTK6uxiOW+p9tbvLTHnugx1d/Axs/PvnGjoGU4f1QOsmOu0eFBZAf/U09n2xHAuS0rSVjAzHk9fQJBRjpo5Er9by/ol/k9d/hGkbLLcrJ53ys7JS+VkR/9TnJGPBqGnYXu5/PsrX7arEv5PiPvxyHJtXzMTq76wf/MH926oxdv/J2Y8Fv59p3z3pGYMV0aHKv4vKa/a/ymtW6kvjjz7jRyEixB+Gj9kS5PsIdne/s3H/xXtn4jD0MPu3IR271y2x8r4zsPczpvI/F3Yz/Fwrnw1vbnLD/JGh8FZui/7kRkz9n0S0iFmMMcq/5Y7KeaZvmqq8tibXpvNGrwFR6NutPbwNP3+KgutZOL13FWYssfw3UmHjvVTa+6Ziv0dRRTATiIiIjK5m31CfHT1awbOOOlnMyQ8tXcVELi6dV1uoBB1a9JmPlVP7FP/iIii/QAUPm4Ipr9vzi+jjTodeU5dj9rCuxQEgwVH5wvjMAExZPh3WejTpek3H8jlD0dWn+EuKUPVdKfyVXzRXICZc+fJg1m1DdtMaFSkb7qO0FJy7rk02cLXvC5f+wg2ZSeCIBm3ViQpL/edxiAQe6NogJFxtMmfSFeygWQBIoYtEYGvlWX8KycqXpdRv09Vf/h39gh/bLmGiK8/KOWPQK6D4S56gvfciECHnjZQvq/PH90ew+FJoCHwIynvcI6APYpbNx4Aq+1FXfp5iVmBFjHI8i58NnYc/ekUq7XL+gXtg98FwD7R/V433wMFRuwfRc5RlvZS1rHGDd8QYLEqIQR8/k/sn/k1+eyqmVPLfFd3AHloASPmJ2j6jIgGg8tH1moLlf7b4d1Lch+aBGKD8u2utu+iD+7fVIBCRvWQh4CZdERkdqDWXYUCfrvAQ76P6vugzaoDWaJX4N3wOxvQqJQBUVfyjsGiZ8t4p8W+Dr/q+WzTSWpfeR+AzpjS1fTFFBoCE/9/encA3Veb7H/9KaVkClEKhCC0qZansi0UWZRGHAQRRwAvCIKKiXlGH659xGXUYrnJVruNwZeSKKAwwgl4VRRhkUGSRTSr7VpSCQEEKFVogLK3F/9napmnSlraUtvm8X680J0+SJufkyUnOL7/n97ia9NS941+yA0Bmg/E8o+94WJ6vQI/xb2jc4FhFe77/DCGhEYq542nN+u9hft5/hcH3qJJAEAgAkG3Pem03D06rx2jA/cPVt11DVQ8JUURMdw2+5xYrMHRm50rF2bEi+BARE2N8hXEr/pMJGtGvn+55do62WT+RudSmh/eXv5WacK9H6v+n9qAAv2Y8kX3bvIYQGKeiZU/kHGK0wEnCyjG0KfPklW3iuvsFjelsRgvdSvjnFD1yj3m7EXrizcVKMA+QwmI15sVBXl8YozRqSKzMe53aPkcvP+wMl7jnET315oIcQyksRdkOd4zSbxsZX3XTDmvZm09Yr5F5uxG/f1nvLovXqbPO7UpI2iVrnFe+Ylo2tLdZ2ikd2mI1Fd6Wf2mPHQVS4y65h4T1v6mxMxRsoz6wm7JkDgVLS4izM4i+XaN95j4jvxpDpdXNT+sZcyiPsZiWtE0Lpjyie8w+4fS9bUd9dYh0nU1OUNwnU/Tc70fYfc24/ctzt9m/hleJ0W8LeOCbH9e92Qdn7h+W6d0/OY9nDTNapoRTOd4ZJexytkPOfZ3vYYvOyTsLrvfTGmNtgzQlfZu9fxjx+yla/IP5f4zPKGPfOvZm+/Y5hSn2wf6KDrHvO8EcpnXfNMVZTzBMN/XPK9iQv3tbOkHc/WvlmThxRbgGGQfvXRRmHIS7f1isKbm2g7GuY17QoBw71xLct5YQ18iH1d/chxu9bNvcl+3PGM9+Z/ST+LnGejr9KMfwu9fjjLUxmRli2etin7yzgGI0bvwgRVcx9w1xmuO89+55+GXN+TbJeJQQRd/9jMZ5x4Eu6zOm8O+LQru+jdq4krTs2RH6IN78/DH6zW3GSvy4WM/d57zmIVG60TM4eOmsTv0QpwVvPpc11NHaDtvtLR7S4rca285azJajL01WnPPDR0Fc3vcoFAZBIACAh2St/78PtebgGeMToroaduyr4aNH667uMQpXiuJXzNO8tdbRI/w6pbgp9+up9+KsL6Tu7R/o5ZVOcKdulErjJOvFxzjg6GvOAGIOc3pRT7y1TIet77SnlLB0mp54cZmVgeKKuUUDzOYs0Yqobp6n6VDcIq1LdL4Iuw8rfum7mvCY8QU/nyESBVa/mvX8lLxHS5faWSymUz+s04IpT2nEs/4HvxSbm29RYyv9361Dm9dZTX6Fm784T9VLfczBY8bz3PR5rsDM5dum+Vvs97GraVflDAP1V9emVkhEe77xfiTj9Y21QkDa823m0K+VWhFvvl4huvHm4s8Fir57iZYs8XH6W3FMoezSfUO7WMPy0owDoGdHP2ccpB22DxKdvvfcQ0abednT1y9r9H1PaMJ7y7TtB6cHGbdfN/85zf7O7rsRDYojPydW/9HXHAJo/Pvvpuh+42B/wXfO4yUnaN2nU/TEYy8Xz4FhYZTIdrCDGGaPdG+fo8cnfpC1fzj1wzJN+/2LWnbUvBSh2Dv91bhKU8Knz2q0cd84c3ha8mJNdvbJIRGN1cVaKowuqhduL7lP7HOCCyZzeFfuPjt1jHN1IUXd/1s76+joMr34+2la5ms7uG7ULXdazY4S3LdmMfYvy7bJnWEsJq/T/Le22c35+GDxOrte2vkELX7H/15uQLtGzntitp6bv87+jMnR70LUqE0xTEN+xyh1rW+cu7dpzuMT9IHz3nMnrtMHEx/XnO1mACVCbe70CviWhs+YfLi/na0p20/pUGpmCPCUvps9TduS9+mkj2DNypdGa8TvJ+jdpduU4AzxtLbDs7Od4E6EotpbzcUkkL9HlQyCQACAnC6dUVLiqdzTwIdUVXidMFV1LsI384vpBK8xAe6Ekx4HCOXZb3WjVTT8sOLe8/GzeOYwKO9fGRWnPT+ZX6hD1GbkO3pjbG9FOwdXxW77YXsoVP3eemnaCxrWOcr+wl4SzIDOg69o1nNdZI2sPLpWs/9pXZNTaKyezjx4nDNV4+6Itg+Cd32gl14qnkP+w59v8z0k7I6uamw+2Pk9ivvUbspy/QC7KHzafm3zuG7lN7ut/l32hoQNUFsro8CtPf+cpuJI5EgzD3xNHkMmCq1dT+d9cFgrZi4rU/uQ4tsOmfuUU0afW+BjG8Rrxnd2TS1X/ebylX+VtOzZnPVNDFn75ArBVkChcEIU7BxJnUwuWKCjKH7bNMo6P/zdDB99NV5brWhIiKKaeh4il+C+1UPWbFD3FbAekOnryRo92LjP4PzqAflXLcR7HHvhdWlvZ1+696yQ9wSJ5j5jQYLd7yIaegU6r+ZnTIEkae3snJ8jafH/0l+/dS5cFo9M1mKMKgT296iSQRAIAOChqmL63KfBXRuqus7p0NpPNGveMu06YXzQVwhReMu+GnpHDIGgvGR4fCkKNLfWUy1rIUr9P8r5K7h98lcA060PXpymlUnGtgsJU8wd4zR1zhJ9NGuqJj7YO6t2QbH4drJemx9vfZl0mdOuvzhdH332vqZPGqdBN1mhmWLluvnp7PU3AzqD2yjCPOpMjtO0Z6cUMPDgVsKnL+v+P8wplkCF5cdPtM3KoMg5JKx/l8b2gU/8WnmXeY66o43xypoxoK1aZDfZvo7TPnODXoEhYWYR0ewhBR4nP0WvL8utje3XQseU4CsYlwezUPPEae/rs888+/eSAhagLaD2UVaWklKPafePVkupc8W3Q7taqmYtnNQxPwep7u+P2QeHlV3y9Q4+6/bxrvl6gj3sr5iG2NQK9ww/eQ6nvbxhMP5lZx1F3flRjm2d9zYvwX1rCVmb4GQx3jRKr9zbxV4Hs3Dxg29ocGvzDZ2m/bv+Zd2mKJqH273JddM4n9vbbwHtEv6MuXxnddZrf5Keesh+D/kVph4PTtT09z/TZ4s8t0MBi1pfrkD+HlVCCAIBALKEtO6t7tcZX6IundGuhXP1xc5kpZ05oDULZunDDeYYeOM2kd3V2/qiBXgJLsKv6u5lmjx6hJ57e5m2JZ6yMglcEdGKHTxO0+dM17jOxXe0Ej/3Kd1z32Qt+DZBSeY3X+PgKKpdbz30n+/r/UmD5KvUZ3ExZ+SJ+2SyRtw3QYv9zSBlzgJjHkDe84imLDtsvO9cir77ab3qswhpYR3WJ9u9h4RlDgVza9867znDojSgjZOJsOcTrwOGxYpLsPYOV2RI2BVTyP4aM2ZqdqHmK7krLOXf0ktkO1QLKfw+5YqLU5Iz1ic4tJ69cMVkZx1dthLct5aEw2/N1zpru4epzcgXNN38weEjYz0Gx1hBwLT9i/WOd0H7wihCFtvV/Iwpfk6h68Gx1mQPnoWhUXYRBAIAOEIUE23XHcn4cb3WHLcWs6RsM75AnrCXI+o3tBcCUUXnHLl9fVjHrAVfRTc9T/6mQXZr2+dT9NzDI3TXgBGaYBa+Nb9AV4lS74fH+hzqUWjJK/XuxCc0+h6zwOUULdhiBznD2t2nh4faNykO3sW07xrxiCbkmnLcD/dhLZvylKY5dS6i7/4PPXa9fVVxOPx5nKwBDa7GijWH590Waw8Fc+/TWu/MmMyhYIbou3NnIjzkBIbL1JCwrP5aTbW8i5r61V+jekdbgQmrWOxLTiFp55RV2LU4ZA5/qFJdxRNicCmk2L75l9B2+OaYTloL/l8jV9N69nAb9ymnkHFJcWu3dYRv9PtGHXXfFY2lrNThn+0lv9lxzumeib5ym0pw33qFxTw5Sl3CpFM/OgGWTO4kxf9zskY//m6xZEzuO2H/c58TInie/GUlltBnzBWXWejaePaehdntU3FluqGkEQQCADiqylXJXrp4/py9kMM5nbvoLJZzZ9PMr2pScBV7cFMWc7rYR+wipaVHsEKuRDq2J6e+R67tkUucDlvJJVFqPrKoW+mU4szCtzOc2VwiovKZCrvw28GduEzvPv+4llkp8iGKaFr4UrHFz61lry2SNYmLsV17jvFX/LYQflykbYnmgkvNb+2hHrc2t/q2e+e/7Jm/PGQOBctXmZolLLO/Rih2qPeMdX7c2lYNrRsaB9XzJ+iD9U4haYvLTFwpPl/v0WHzdQ+J0W+fLGDuwCm37MmHqqlajoChS71ffEf9iyuIWMTtkDUrXuVq+fQrj9fobl/TwMdq7M32fziVsNYOapaglUvj7Pov5ms03t809cUj7pCduRd1431FfJwrv2+NuvcVfWQOG5rzgnzMWu/bbU9r1ifGfT6Zqof8dvceurez+WPVYa39gx1gyQpI3DNaT72VT4A9Pd0KxOR+f+S28nszC9PozdG35LN98lfQz5iCvy9KTmZtJKVu03yPwuwWVzUrEIyyhyAQAMCRooNH7eBP1Rt7qFdMhKpm1lgMrqqIln0VW9++mHT0kL1QTu05Zn+NDIkZoKd7mAnmLkX1Hqfpk+zpYkuHzIOjELUZ8soVLT4Zd8Q++AhpPTi7BoNP2/S5NetUiGLu/bumjhukLk0yayCEKfrWQXpswnS9/4b3zE4P6Y33p2viWOP2LbLXwxXZRcNus2vUKOmwsca+XN526PHcdM3676c1rE8bjwKpxnPrM0ZtrP6dpqR9+czYVdLcczR/nf0auNoNKMZsoMNatM0pqht9p+6MMbecW7u/8c4kiNLgdvYhSdLSR7IPunKc7nGmGw7RjbcWbdrtkmMc1GQWFW79kP7+P+M0KKv/mH3iIb3y7itG7/Sw+aQTZHGp8W3D7Nmasm77vh5rl1fvu1wf6Otd9gFXRJ9XNWvSQ+qd+X5yRanL3eM0ddoLOWfK2XJIp6zjyAh1fdR5fuGxGjbpHY3rnPleLAZF3A7r9tlZEarfQy+My6tYscdrdNNj+tuEYeoSaf/vsJsG6elpz6uHNb1bglbM972HuKK+fUvzv7U/L8JuHqf3zf7SJ9rYErawJvWK7SB5m1PMPSRmmN1Xb/V8nC4aNNas2fJGzv5agvvWbG10b+82cpnDhsK76N6xBcszGta/iyLMz9cq0er/sL99SD1Vtz6DI9RmTG+1addGMU5/KJBv9sksj2Tev8cfx2W/n3z5fI32mG8/Yx2en2W+rjFZn32uyBj1vvdpvTFrul7IMclB0T5jCv6+KDnbTjhz2oc2Vs+h9uyfWZMczHlMba70j1C4Iq5p0qTpr84yAMDLxYsXnKUAUTVGfe/proaVncs+pB1cpQ+XxstXrtCV0qhRI+3fv9+5VAKuf0hTpwxStI9v76e+3aazN7dRlFm3xaOo6EN/W6JBjYxD6G8n507Hv22iPhofK5fXfbLanYv+mOn/T8xwLniIenCqpg62h2R483efQslje2j/Aq90eLN+wKvGtsjj0CfXfcwplY3/71zKzZwu9uFcs4Vkupzt0GPCR3kWrU0zntuzxTCcIM/+4I+/fmJyDdIrf3/IOth2b5mme57PzNXJb9uZ3Ip73c8QvOsf0/Rp/bN/dfb12NeP06xpvY3DpiQte2y0pvgpUuwaM1UfmcVS0+I1566nfExln/lc83g+lh6aOD+fgqO+nmehxOi+N17SMCsA5os5tPEJj2nio/TQ/0zVoCa++3daqtFHQ10K8erj+fU7m/djGVy99fTfHlMPu4J1bj62Q48X39fTvgI+5xMUt7+eYlu4vN4XBelD3n25cNshm3GQ+/7T1rCeXHKtk7FP+R9jn+LnsZRxSuumPqyXc+wfsvtQse4LfcqvD9n8P4+Cvi+MRzLeY68a7zE/W8Lg3YdKbt+arY2envWKHZwzJK18TqMn5z972rA3PtN9MfYjpcXP0V1P+Zom3qVBk/6uh/IIMpp11777fJr++uE2O9PJi9/3h4/t7+o9Ue+Mi80KtuWW+z5F+4y5nPfFZcr6vpHdRzKfa/Z7O/N947FeeX3+K01uYyO7XCG5+kPmZ2CevNapUN+jUChkAgEAsp2L1xfzPtGqnUeVciFzjl/DpQyd+/mQdq36RHNKOAB0Vfz4rp59bbES7J/UbcYXy3Wzn9PDExPsX+pKgcPvPasJs9fpsOfzvBLM7fGnOVr3o11UNG/xevfx0Zr8SVyu55WWmqSEbxdoyqvznZZM8/VuZtFSz7ukuZW0a5mmPev/IMV0Odth5Vtv2cU6U72em1OwubjqSRQ79wJNW2b3vWLNBvpxtuI84qunti/O9eU66s42so7njm7TJ3nMUuWet82uyRLSSB3vtZrKgHjNeep+PWf0n4Qkd47+bfaJdbPfNXqnp8N6948T9MGWJLm9bzt3gkbP2K10p61YWEV9jffTP7fl7N8ZxsFXUrwWT5+S6/Va+dJLevfbw9nPL8N8Hy3W5Eee0ArnR/2iK+p2WKmXfz9Zi3cZ98/3bWvsU35vboP4nO9ba72M/cPz3gGgkmb3oUemLM4qvJzF2KGdSow39i1TNHme01YE8TOe0OjJCxTnvS8+b2yLH+K0YMpkr/5acvvWbNs0f9k2u18kr9P8two2ff4Hi9cp6byxcD5Bi9/xFQAyufWvxXFKctY97XyadfIUEhalLqMm+i2kv/Klx3P3JT/cyybo4WenaZl3P7Ve121aNmOypngF7Yr2GXM574sSYn3+f6BtngWYjP3PqR/Xac6fRuutncW6x0MJIRMIAPIQcJlApVSJZwIBAIDSJSsrJU0Jn0/Qs2/nzPZxRfbW2D8/ph71Q8wUJD03erIKFoICAguZQAAAAACA0u03bexhSe49+pdXAMhkFmDeetTJTAkJKWANIyDwEAQCAAAAAJRul5xz140abBYJ9yjsbBa7HjRuqsbcZId+3N+vUSkr8Q+UGgwHA4A8MBysdGA4WOEVqDijl8sqZgwAQElw9dbEd8Yp1n+lZkta0kpNe3yyrmqpqCukYEXmvfgt0I5ARSYQAAAAAKB0cy/ThIef07RldmHnHMWxrWLpCXbx5dHlMwAEFBcygQAgD2QClQ5kAgEAAABFRyYQAAAAAABAACAIBAAAAAAAEAAIAgEASj2GggEAAABFR00gAMgDNYHKGdclvfDkaQ1te041gn+RMqroxPfV9eYblTXnZ+c2AAAAQDlFEAgA8kAQqBxx/aL5U5PUpabndCIOdy1NfbSaXmc2EQAAAJRjDAcDAASEMU+m+A4AmVwn9fD4X5wLAAAAQPlEEAgAEAB+Ub+W55xl3yo1vaDxzjIAAABQHhEEAgAEgAzVqOIs+lPlkuo6iwAAAEB5RBAIABAAgnT6vLPoz/kKOu4sAgAAAOURQSAAQJnSc9RpfTf9gu5zOQ0FUlFLtud9h4vfV9brzjIAAABQHhEEAgCUIZd0d5fzqnP9cb3w+kX1dFoLYsbfQrXieCXnkpeU2vrv1ys6FwAAAIDyiSniASAPgTpFfPXrY9Xj5paKqBGiIPPngvRzSj64WatW71Jyun2bq8ac6v29JHUJk05viFC/CRV12LkqXw0vavl/J6lxsHPZUkNLn62pR753LgIAAADlVFDt2rX/7CwDALxkZATatOFVFdPndxrQIVLVKwepwjVOc1CwqtZqqOYt6sv9/fdXNxCUXkGf7KykAb3O6Nrr0nTzpWp6f4dzXX5SK6pll1Q1SaupH3+qrJO/XKNaP1fT/e9X1GnnJgAAAEB5xXAwAECWqm16q/t1IVJasnZ9+aFmzZiu6dOna9aHyxSfYtwgpL5u6Rkj4xZXV3wlvbi4prFwUS2GnNX4y6oPJB3+toZ6PW2cvq1kjjAreCYRAAAAUIYRBAIAOGqqzY0RxnmGDnzzidbsT1HaJfuatJQDWvXpKh1Nl4IiYxRz1aNA0rrp1bQiKUhypequ0ZcxsvmXIFUy7maKCnJWEAAAAAgABIEAAI56Cg81z5N0ZL/VkFNavPafMBci1OB6q+Uqq6AXl1c3zjMU1em8htqN+fpsZ3XV7XdIBxcc0pp+adq3tRREtAAAAIASQBAIAOC4qItWrZ9whde3GnJJOnnGOg+rZQ7FuvoOf1xZu9KMhTrndVc3uy0/6+bUUNNBDXWddaqrXnMyCx8BAAAA5RtBIACA44AOJZnnIYrp3lct6lWVM2pKITUbqkW3u9S3uZl5YwgqJdOpu4N1ONlaUFRLqwUAAACAH0wRDwB5CLgp4mu21l13d1ZEPiOkzuz8RPPWWtGXq27My8l6IfacTm9ooFYTMsNWAAAAALyRCQQAyJayXZ99vEybE1OUluG0GTLOJuvQlmVaf9BuPHe2FE2o7jzPGrU8njAAAACAXMgEAoA8BFwmUJ5C1Pru0epcN03x/5ylVYlO81U2ZmKyXuh0Tvq+nq57giLPAAAAgD9kAgEACqZmG91Y1zhPP6IjR+2m0uT0SYaCAQAAAHkhCAQAyF9wfd3Sp73MOcHO7dupfZfs5tKgVb1z1nlqEkEgAAAAIC8EgQAAfgSpavUI3dCxr4aPGqAWoUZT6i4tW1Oa0oDS1Niazr669m2wGgAAAAD4QU0gAMhD4NUEitGAR7rLiqt4STuxS8uXrtEhO/GmVIgadVprhqdIJ8L19O+q6kOnHQAAAEBuZAIBAPzKuHBOyQd3ac2ieZq1oHQFgKRf9UKPM8Z5kA5vqEIACAAAAMgHmUAAkAdmByu9ooaf1vJRKaqUWlsv/5tLM5x2AAAAAL6RCQQAKHtiLurv96aokqpo8wcEgAAAAICCIAgEAChbXL9o/p+T1TgkSKc3hOnJBU47AAAAgDwRBAIAlCG/avKrP6tLWIYu7g/XkxMq6rBzDQAAAIC8EQQCAJQh1+iLnVV0en+E/jC+klY4rQAAAADyR2FoAMgDhaEBAAAAlBdkAgEAAAAAAAQAgkAAgDKhQsUQVQiu5FzyLaRabWcJAAAAgDeGgwFAHhgOVkoEBativVaqWDfGafDt1/QLykg5pEvJ3+vShdNOKwAAAAATmUAAgFKvIAEg0zXBlVWxTlMF1W7stAAAAADIRBAIAFDqFSQA5KlC2PXOEgAAAIBMBIEAAOWOmREEAAAAICeCQAAAAAAAAAGAIBAAAAAAAEAAIAgEAAAAAAAQAAgCAQAAAAAABACCQAAAAAAAAAHgmiZNmv7qLAMAvFy8eMFZKsOqtlDv+4apf8cmqlvVuHx6q6Y+/KrW2tf6VLX5ID06urfa1a+p4CCjISNd507+qDUf/EUz16bYNypBldsNd5YK7sKWec4SAAAAABOZQABQTtVse4ce+fObmjnjRT3QwwkAFUDVHs/qjT/9mzpGOQEgU1CwqtZpot5PvKGX/q2J0wgAAACgLCEIBADlUguNfHCkesbUVdWgdB3f/k/9c/s557o8VB2k5x5sq5rGYvqJrfq/Vx/VsGHD9Ogfp2vF4XTzBmoy4EGNjLJuDQAAAKAMIQgEAOXSLi3Y8qNS9q/QzP98RE/+11ztN2M4+Wj7cG81CTYWTm/VzGde1YKt9tAv8/9M/8NftPaEcSH4esXe1cJqBwAAAFB2EAQCgHLqyMxnrQyeZbsLkAFkaaFbo80cIOO+G+Zqhdfdmgzooyb21aobfYsa2IsAAAAAygiCQAAAR3s1qGOeH9eP3x2xWmw11Xvcm/rTiLaqa2YJmaqGqamzCAAAAKBsIAgEALBVDZYd4zmnlO3WglS7t56aMlUPdKqr4IwU7Vq6VcfN9ho1FWndAAAAAEBZQRAIAGDrUFdhzqKpZtdH9Je/PKCO9YKl0z9owaSn9NLfj6igg8sAAAAAlC4EgQAAth9P6ay1EKw6D/9FU5/oqQaVpXP7FuilcS/q/8zaQlFVVcCZ5gEAAACUMgSBAAC2w+ecLJ8G6nhbAwUbl35c+oYef+H/tCsz/Sc6TNXM89MpSrQaAAAAAJQVBIEAAI69Om7PCC9dOKIVf3lcz/59Y47hX23bXm9nAp06om+tFgAAAABlBUEgAIBjo3YeskM+6UlbtTjOM/xjqHqHBrR2ppDf+zW1gQAAAIAyhiAQACDLsv/71pr9K/i6O/Tin0eqZ327AlDNtoP07GvD1MK8eHqrFn/gOYU8AAAAgLLgmiZNmv7qLAMAvFy8eMFZKnu6/mGmnuiQXxnnc9r61gN69RvnoqHJyFf1pzuud6aL95J+XGvfe1ZTV5ZsHlDldsOdpYK7sGWeswQAAADARCYQACCHH+Y+qyemLtMPJzwCPRnpStm/QjNfKfkAEAAAAIDiQSYQAOShLGcClSdkAgEAAABFRyYQAAAAAABAACAIBAAAAAAAEAAIAgEAAAAAAAQAgkAAAAAAAAABgCAQAKB8qljJWQAAAABgIggEACiXgmrd4CwBAAAAMBEEAgCUS0G1GysovAkZQUB5FBSsaypUdC4AAICCuqZJk6a/OssAAC8XL15wlnA1VW433FkCANsvx+P1y7EdUka60wIAAPJDJhAAAADKnIp1Y1SxXivnEgAAKAiCQAAAACiTzEAQAAAoOIJAAAAAAAAAAYAgEAAAAAAAQAAgCAQAAAAAABAACAIBAAAAAAAEAKaIB4A8MEV86ZB7ivhQudr1U3RksHTumBJWL5P7as8SXbOXmtzaQC7nYib3gTX6Yed+59KV1kjhvW5RZFUpefscJR50motbwyNaMuqgtszuoucPOW3lWb9+WtC1lnMh2/61/9D4Jc4F+Fc5Re88sVk1NnbTsFUVncbic2HLPGcJAADkh0wgAEAZ1FhhkcHWh1iFqvUUVt9uRQkwA0Bj5iralaB2rX9xGhFIOvS7XW8+e69mjrzBaclbu7ZH1a72RrXru0Szb3IaAQDAVUEmEADkoVxkAlWorvptOqpzy8YKr2pcPrNLn8xbo2T7Wr+q12+vjl1aqHFt607atWCe1pywrytpZSITyEu1TvepcZ1ylglUOUWz/99cdaound4zUnfPrqlE56pcKtdT334t1bdpHUVWD3IapTS3Wwfid2vekr3aUSbfXjfo+T92VQdXMWcCte2puffkziTz7aQWPr9Es51LJW3U47/TwGuNvh2/ViPnHnBa89a9/zpNvWW1KqV308czijeDjEwgAAAKjkwgACingkIbqn2vwRr54HAN6OgEgPITXF0N2/XS4JGPaPiAWCcAVBqlyr1lvrYvmqPty0tfAKi8GjfyS3Wq7tbFnwZpfB4BIFeHrnr7mds1pkO9HAEgU4jLpWYdYjXqNqcBAWHV4i6asqe5sY9ZrSH3JmiI0w4AAEoWQSAAKJeqq33vvoptHK6qSlPynlVateeMc51/1dv2U18nYJR2Il6rVsUr/3shILTbrRHRCVJ6Ny36oIFWOc25xHTVX+66QXVDjOX089q7cb2em/KhBj3/Dw16aZGe+2yrVh88L/cl++ZwbF2hkeY28jgt/Mm+ysy48WwfdBWzgIpi5uxe2uA2FsKW6N8HMZQQAICrgeFgAJCHsjwcLKT1AA2pf0Qr127W0TNSeNfhGtyyet7DwUJaa8CgBjqyeo02m3eqc4uGD2qh6qVkOFjmEKucTmrfosU661zKKXN4lH2b8xE91KB5A9WsFmT9CvLL2ZM6tGm5Tp8+b988lyoKieqieo3rKdQVpKBrpEsZ6TqbdFBH98Tpwjn/KUgFGg52XX+1bV1LOndEu5cvV5rTbMt87ulK/Ga+klOc5kzX1FPVZjer/vWhqhps/6pzKSNDv1awn6fv4WDG+tzQQ5GNa6laZXsbZKSf188JO5T0Q7wy7Bv58Itef+p/NaCu8X+3jVHX+ZWddm/hGvtUH/WqbSymn9TCmUs0+zKG/dRsHatnejfSDaHBCrFXSO7UU9qw+ju9tdH3AEZXo5Ya27+Z2tcx1s35aSvtTKp2bNqqKV8elhlzyKVylIbf01a3R4eqprHtfPpptwb9bbNzwdPlDAcLVqseXTSmU/3sjKh04/U8uFfz5m/Vhnx2L5c17KrGDRozrK261XfJ5axT2pmT+ubrjX63ndkfug3sruEtwlTX6N+WS+k6fviQFn71nb7Yn9m/2+v1Sc2NHlkAfrebLfK2jVrS+2tVutBXU/7cRv/rtBcFw8EAACg45+sSAKC8Sdu+SPOW2gGgAkvbrkUffGEHgMqV6qrZYZBu7NhQtZwAkKlitVpq1K2vavqKaVzTWGG3DlLztg2s+5iBFVOFoGDVqN9YUY2i7IaroXIHRfburaZNQlXNCQCZKgRlP8/c6qhax0GKaVlHNZwAkCkouIrqxnTUjZ06KOfALQ9NDqpzXbeUfrP+9am/AJChbSt1MgNASteOL7+8jABQsHoNvVtvD22mZmFOAMhUIUiusHD1Gvgb47roXPVymt3eR28/2FadIrIDQKaQ6qHq0KO73n6krZo5bVkqR+v5cd01JCaPAFCxMNZpxJ2a+JuonEPigoMV2bilnh7XU73y2JSXpWF7vf4fXdX3uuwAkCmkei1r273eL9xp8RSuUY/fpXEdw7MDQKYKwap7XbTG9GvlNBSvxK9ba0OqsVB5s4wuDAAASpjHVyYAAEq3sxvmaOsi5/TNEd9ZHj4FK7x+NVVMP6tDGxba91+1T6fMRIdrqqnODQ3tm2UJlqv9zbqupnFw/Gu6kuM3aecS53G/XKnv40/q4lUbzdJAYZ1aKDxEunT2hPatXexsk4+0fdUuJedMJ8oS1PhWNYoIUgVjGyRuWm7fZ/FC7dx0RCnGdqhYp4Uic6dZWQbclCArjPDTdZqZR/ZKpxa17ECN+7iWry14oSZXh1t0f2uXQpSh4/FbNdkZPvbAtPX64oj5f4JUt3VrjYmxb29pGKuxt4Rbj+c+sldvTfvEus/IKas0L95tZVW5Gt6o+3vmjPR0uKutOlQ3FtJTtfyzJXrAHF712hK9tSnVycRya/Vcoy2PbJaCcHXtrvubVzGW0rV/43o9+ZI5jOsTjf9sr/ab27B6A90/onkBC0HnJVxjhzRXI6M/pJ06onmzvbdDkBp1vVVjvbt4x7a6/Vqjf3tuB2ubr9LsTclKyZEct1njnevNk/9hasYp3+1WWcsOtjHOk9S8aZLdBAAASgxBIABAYEg/qX0rF+jkCTMNwXB6nX5KtAMVrlCv4Ee1rrq2vpkdka6jaz9W4g+79EvmWKkLh3Tuh8U6FF9SM355qd9akVYQ44QSVn6hsydP2u06r0unT+mCz+BUjGrfUM340E/XT5sWKfnoEbv511T9cnS5ftxyzAqAhEU285kN1Kn2Xus88Vht/7OBGZqFmkEPw+lUrbaXDObwqd9pwaScp7lZ04uHavit9qxY7v3b9P/m7tSGE/brknIkQTOmLdfyn81LLnXonJ3X07dXI5mTw+nnBL08LU7Lj9hRC/eJw/p47mLNt4YyBalZm7aKtK4x1dOtkfZzTPxuqd6KOylrlN3pk1q+YKmWWzEJl2JiQs2FIjDWKbaetU7H45Zr/MIEJVrBs/PaHxen8bMTdNy45IpqqL5mc1F0bGtnX104pvl/W6GPv/feDmbHdalV53pWe5bwEOv56XSyvsrcDoaUI4e10NgWD7xXtCBYXj4+VF8XzYWwn/WA1QIAAEoKQSAAQEA4uedfOuuVxZJ2xvewt6DIWqpmnF86maBkK12o9AgJr2kFatKOHZK7oFX9qtdTqDn06MJxnXICLDkk/azT5nn1mnLCOB7cigwzc66aKfFQRbvJH+dbhdtd8BwtKVrNrBjcee1Yu9tHdley/v69Hbhz1Q6XPUgpSq0izAhQhvZu/052iMpTuhZuPW7/r5q11clqy09VheSzegWXuU6p2rTURz2eQ8d02HxywaFq1tZuKqxOTUKtYI770AEtzJWlZWyHn+xtV7dOfes8y/5UKxCl2tF64cnuGtLc/j8l4rtwWeXFXCnGlgIAACWJIBAAICBcMg6IC6pKDTMEJJ1PTTbuV7qEmFWgDWdPfW+dF0hoNTu4U7mBmg+4T21znVrYw7188thu/itH5+ByeYYTDmjSf2UPF8ocSpSlcRUr4GYGgZLirYVc3Iln7YBOSIjCrJZQhVn1dC7pbLKf13VTqqzEnuAKHsGNY9r7s337yJv6aGxsLdU0L9RooIFDu+lWq57Ree2Pd7LFCqtVddWyFkLV98XcWVALJtmFpYtDZvaVq2lnH49jnLrazySX+LX664pka7u6IqI0fMQAzf3zYL05urMGNs0dCixWF2RnAilZka2tBQAAUEIIAgEA4K0MfDpeTlDLTB0qyipVyllWx6/EM85zqlzFydgpgCoVZc4mf3lCzPrKhfLFJz9ovxnZCw5Vr7v6aaYZKHmmp0a1DrWeR0r8Vr3lJxhVYEEVVMind/mK8MLu/WqpRr62VgvjT+q4mUUUXEWRjaM1atRgzRzdPHdRbQAAUOYRBAIAwEvaWTuYUblSiQ2Q8aGCKvj6lHZSk6pU9a70a7imioJ9DWlKPW9n0phT0VtFpP2dfE21H6yLmfEmXwWDPGw44QyvC6unvp5FnPOy44zsqkaVFNbYWsjFFVnNzua5cEF2JaZTOmWtUAVVs1ODcusQqgjzPC0tq96NuS4D72miRhUydPxIqlUQO5M5rfyGL7/SE3MTfAxJu0xbnSwkY80WehZNznX6UJO2WjcstAOp9kr4LNLsefJXsPn0Ac2eu0SPvmQWk16vhfvsoto1G7fR/T3sm1w54Urc7iwCAIASQRAIAAAvaSdTrJFPQdc28T19fHFJz7BHWFXMnrLdZk7nfrPq+Xjs86ftMI2rdmTu+9zcVhG+0mpSjsttPlDVWqpmj726DC6dsB5yryIb5j0lmvvrQ9prxSSqqP3t7QuYSXJUiafMc5c6dM09Dbw5G9oYp1BzytFDTmHqA9r7s/UK6YZWsT4eJ1hDbrILM6cdS9ZXdqNUuZVubRRsPNFj+mjaIj3w5+wgybBXF2nyymNFDwBZMtcpVDG3X9mcoNWJ9qxmrvoN1cFuKjT3iQTNnrXYKZAdpIgGUVZ7Lk4gMjikkMPGbko1eqvBXVMJVgMAACgpBIEAAPB29ICSzOEx11RTw+6DVDeqsSpkZsEEN1TVJv3VMKaR01AEKWecWjd1FNHE+X/BjRXWubc9nbvdkkNG4kk7WyfsBkU1MZ7XNcayq5XCbzXuUydIl3wWi47XyaNmdKaKGt5ir09Q5niqa0IVVKuVanUYpOv8rNOqY+2t88ioJI+Ztny4sFN/33jSCkqEXNtcr/yxn8Z2jVKkE8xy1QlXtVyZSsf08Q9O4eemHfWXkS3VqY793Go2ba5xT3ZTNzPbJ/2kVq1wZjUzfLzlhLXtQiKa6YXHYtWrgVMbp060Rj18p4Y3NF+w89r87dbswE6kU3/IVUvdekapVeN6alTDuqaYHdMX+8xHDVKznoP0+qDm6uQ8P/M1aNSqucaMHKCZj9jbtUjWH9Jes6/WiNIfxt+uUbHhObZ3r55d9cr4AXraqwB1t2ED9PbDXTUk1nMbGM8t9ia1ssoIZSjp6GGr1dvmn+0tGtLoRk00tmPm4xXUgCaJsh7y59qaabUAAICSck2TJk0LOrcIAAScixdzTbdTZoR3Ha7BLc25xPNyRrsWzNMaa6oeQ51bNHxQC+V7r52faN5aH7MeXSGV2w03/nZQZJ4FjG3uA2v0w87M6dsbKbzXLYqsKiVvn6PEg05zpuv6q21r44j3xC5t3bDJaXSE3aLrb26kmn4SOXI+jnFA3PJeNb8hv6yPk9qXY8hVqKp17K/GEbnHWV06e0TH0hqofq10JX4zX8lZY5qC5erwb2piTWGfU1rSLv14rqmaGs8j1/pe01jhPbsoMo8Rbt7rlOXGvVo76lNj23fRor9203h7rJMfweo1tL/GtHblWevHHL40cu4B51K4Rj32Gw1s4Ge82aXz2vDZ55q8yWP8lvk4I+7U2Ob+slEytH/tlxq/xLOfhmvMuD7qa6Wh+HApQ+7UU1q9bJVmbLenWjeNevx3Gnitc8Ef9xFN+a8VHlPjG+v0uLFO1/pZJ9NPu/0P0zJkPm7ObZWbq0NPTR3UwC5y7VO6Nn2Uc+hZt5FDNS7Gf39NM57bBOO55Z55zRDRXq//e3OZSVW55LNOZlXod56bou6hEdr99WjdvcxpLoILW+Y5SwAAID9kAgEA4MupNfrxyzXafzBVZomgzFnCLmWk6/TReB3c4yNYctmM/x33jfYnndcvzk8ylzLO6+QPW7Rr5XKd8zkbV7rcm5bp+wOpuuBcb97n+M412r1xk/wO2Pp1n5JXLFN8/AmdNu6YNevZrxlKO5uqn+I36YC/ddoTrfXHzejROnXulV9gNF3LP/xUj87eqg1H3HJ7xm3MIMupVO3YtFlTFnoGNZI1e9pnmrIxWcetcWuOS+k6fjBBM2Z5B4BMxuO8/7kmfHlYiWc875OhlKQjWvjhZ14BIFOyVm+1Z8QypaUZ626mLWWqECRXWLj6Du2n5zvkF9DLj7FOfzPW6ZsjOZ+fIc3t1v743Xrrwx1OS9G4N63QE+/FaflBr+2dbmyLE8e0fMkaveVVe2j1wo12QWjP7W0wayNt+matHvUXADIlbdaEOcbra/TbtKyOVDCRt+xVJ3N034X2WlYMASAAAHB5yAQCgDyU5Uyg8sTOBMLVFHnLNi3p/4UqpXfRohndNP6Qc0VZ0ra7Zt4TpZo6r00Ll2jSxuxsH1PNpi31H0PaqpVLSju0VcOm73SuQfG4oHeemaHuYdWUsGak+i32VcX88pEJBABAwZEJBAAA8pW4po3eP9RACl6nAYOPqLvTXpZ0a1XPHjJ14pDe8goAmVK+36tEZ6xeSNDlT1yPvD0wapm6h7mln2/Ta8UUAAIAAJeHIBAAACiQ12YO0IYzLiligV4flZJ3kehSKO2SM1iuTiO9MDBazZwC1KaaDaI1anR/9bLmlc/Q/h+Zt6o4de+/TuNu3C2ld9PHH16nVU47AAAoWQwHA4A8MBysdGA4WCnS8IiWjJmr6OAGSvxukHp9nEel6dKmYXu9/oCfgsYe3Id26uXpW/3XxMHlabdXcUM/VQ0114aP79So75z2YsJwMAAACi6odu3af3aWAQBeMjL8ltlFCap4bStnCVddag2tOh6lXo0qasMX0frant29bEj9Scs2n1Hl8FDVqxGsykEeCdFmEeWTx7V2xQa9/Nk+/eQ0oxikVNQt7dKVuLS/Rm102orRL8eKp8A2AACBgEwgAMgDmUClA5lAAPwhEwgAgIKjJhAAAADKrIp1Y5wlAACQH4JAAAAAKLMq1mtJIAglIyhY11RgZjsAZRvDwQAgDwwHKx0YDgYAKA1+OR5v16HKSHdaAKBsIRMIAAAAAArAzDqrWI/JCgCUXQSBAAAAAKCAGH4IoCwjCAQAAAAAABAACAIBAAAAAAAEAIJAAAAAAAAAAYAgEAAAAAAAQAAgCAQAQIDrNnKoFkz6nRY83t5pyS2y5+2a+5Jxm5eGamLPUKcVKP0eGPWF1o5KUaRz+apr21VvTzDeS5Pu1dv33OA0orTo3nuj1v7HQY2o7DQAQDlDEAgAEBA69Ltdbz57r2aOLIUHXRHNNe6xuzX3pX4a5TSVNr1a1JPL/NZQIVitWkTbjShFGmjU6AGa+efBer6t01SKRHbtqtfHD9WCx/wHGq+EB0Z9rmdu3KbwyKPqXUoO6ru1ilTdEHMpSHWbXK9uVmseSmz/ULr7UMlshwsa0GKvwiPm65lHjqi70woA5QlBIAAo7ypUV/12vTR45CN65BHjNPwWhTtX+VO1Xnv1GjJSD41x7vPQSA3u1ULhwc4NyqCWjeopsnqQSuUqXBuhDg1cdpCllFq+65jcl4yFS+nasSvBbkQpEqFWjUNVM7iic7l0adQoUo3CjHdfCfbx7v3XadyNu6X0bvp4bnPNvOBccZWt3pGo42nmUoaO//CjVluteSix/UPp7kMlsx0qa/z/DtCGMy5VunaBXi9NGWQAUEwIAgFAORUU2lDtew3WyAeHa0DHxgqv6lyRpyDV7zpUIwfGqnHtqgrK/JQIqqrwxrdo8PC+iinQ/0F5k7jiK4188R8a9OKHmrAi1WkFSqmGB/WnW1arkpprw8Iuev6Q014abF2rRyca76Xn5+vRjw44jSg1LtTUqLmDlJDuVo0bF2nqbU47AJQTBIEAoFyqrva9+yq2cbiqKk3Je1Zp1Z4zznV5iOqh37asKV06p0NrP9OsGdM1fcYsffhlvM6YWSCVGyr2pvr2bQGgVPpFk+7+2srgOL2nl0Z9Z7cCBXaogf7zW3Og3hE177ZN46gPBKAcuaZJk6a/OssAAC8XL5aS8QOFENJ6gIbUP6KVazfr6BkpvOtwDW5ZXTqzS5/MW6Nk53be6ncboEbxi7TmuNPgqN99tAbEhOR7/yuhcrvhzpLkat5W426PVqs6VRTi56eM/Wv/ofFL2uv1Sc3VyGnL00+7Nehvm50LmYLVqkcXjelU3xpGZklPV+LBvZo3f6s2+OwaPu5zKUMpJ45p1coNmr39vN1mMIsxj4spyOC0dG366ENN2upcLBLfzy9NQfa29N4O/fppQddazoVs9vZ1LvhU8O3grWbr9hrb44Ycr6/7VLI2rN2qv68/JrfdlMXVqKXG9m+m9h63TzuTqh2btmrKl4c9bh+qMeMGqG8d4/pDWzVs+k6n3VOoxj41QL1qSyk7VuiBD4447aYq6jawu4a3CFNdl7NOaee1f8dOzViwV3vtlmxte2ruPQ3kcrZpzdaxeqFfYzVytof7xBF9vGCFFhYlQ8XP6+OL79fsMtfJ4uM+l9J1/PAhLfzqO32xP91u0w16/o9d1cHlXMyL+4im/NeKXMOi/L62W3fqraUHlGI35dZpm7bf9YUqpd+mmZM66jV/u/HM10gntfD5JZrtNGca9fjvNPBa722XuV72fTbc2l1ju2b387QzJ7V8yQrN8O7jWY+Vkzt+rUbOzZ0NVGL7h6vSh0puP1noPmS5oHeemaHuYVLihn9Xr89yDpO7sGWeswQAZYuzOwQAlDdp2xdp3lI7AHQ5jq7OHQAyHT1ekmEf31wdemrqiJbqEOE/AFQ8gtVrxJ2a+Juo7IMUU3CwIhu31NPjeqpXrl+GjfuM9HGfCkGqGdFAA/t3yr8A7BUVrlGPDfH5/Ip3WxZ2Oxj3G3q33h7aPNfr6woLV6+eN6qDczlTs9v76O0H26qT1+1DqoeqQ4/uevuRtmrmtEmpmrczWWYplpBrIzXEbswporla1TYXzit+q2cAyNx2d2lcx/DsA11TSBU16hCriY+393gcL9VCjXXuZ6xXs6wAkMlVp4FGDe9+FftEYdbJuM/jPu5TIVh1r4vWmH6tnIais97r/l7bWztqbB6Fi59pv1mVjPPkPa39B4CKrLpaPXy3JvbJ2c9DqtdS36F9NLah01CuFaYPldx+sih9yFZZ/7nlZuPcrcgbE3zvMwCgDCITCADyUJYzgbwVNBPIn6z7n9yseR/F6TJjS0ViZwI10NPP9FSnGlLaiQTN+Girlh85r5oNojXino7qVcc4oDh1QJNeX6tN9t1yyPxV398v755cXW/X2/3qyaV07d/4nab8K0GJF4wDm9iWeqyPcTBf2fg/+zfr0fd2Z2eaRMTqzSebKVLnteOrjZqx/rBxH/NgP1ydOrTSwKaX9PGbq3wXgc0nI6E4dBh6t55v7ZIundfetVs1Y12C9p+Wsf2iNHDgLRrYwNh+PjOiMmVnduSZCVTI7eDq2Ufv3R4uc9Ik95EEffzVVi38/rxUo5Y6tWqmIR1C9Lnn/Roaj/OA8TjB5u336u8Ld1r9wVUnSn373KQhMS7jf2Vo71cf67kVmdkpLfXKn9uqWbDZPt9od5odkXfdrTdjjRU8sVdPTolTotPezGh/xWxPd2vTqo16a8URpVQOVafO7XV/9waqazyH43FL9ehnHu8q78yPNOO+q+37qmNPvTGwgWpazy/38yiczMy3gmWGFGqdOt6uuQON90V6qpb/c63ejztpZVKYfaj7zS00MOy4HnjPd//JyujIs49lys7aStm/Ve98vlcbThivofH8mrWK1pDODZS+epEm+1zHJH360iw1D26jVbP76uE9TrMvRcoEci4a22/Dv77WW+tTFdy6s/5zULTVJ1N2r9ID7x92bpTb5eyPSmL/YCuBPlRi+8mi9CEPlY3+9LzZn5prw7w7NWq7024gEwhAWVWsv/0BAMqpCvXVolF1azFp77YSDQBlaXy9GtUwF4wD0LfXWwf8ppQjCXrr7X32AXtYXXWKsJqLIFTDY80AkHkAs1zjF5oBILP9vPbHxWn87ASZiVKuqIbqazZnuraawszztFRtdg5sTO4TyVq+dIWe9HdgUyJaasiN5hplaO/Xn+u5pXYAyJRy5LAOWAWfikmhtkMDje3oBIC+X69Hp623A0Cm0ye1Ye16jfe6X99ejayDbf2coJenxWX1B/eJw/p47mLNt4YlBalZm7Yes/vs1OqDdvsNTVvaTVlCNbCRfWS///utWQEg41BXw1uZ7ena8eViTTIPdM3mC6nasGKF/t/yY1Z2Ud3GzeQ3DybNOGid9WnWfVM2rtGqn8wrghRRP8pcKGGFXKfwEDuodTpZXzkBIJPZhxYuWOo3AHT5aqmuVYA+Q4e/dw7eTcbz2xu3WZPezOPgvXWK3S/S6mt3XgGg4pBuvK4zP9Xk9alWMDhl+3p9nGA/15phdazz8quQfajE9pNF6EOeLtRWorWv3K3I660WACjzCAIBAPJRVTF9f2vPCpa6XWu2W3Mbly6hFa0AQvGIVjPr+C1Vm5b6yJc6dEyHzSO+4FA18xxOEH9CieZxRkg93fv7PhoTW0s17Wuuvg51nAPjE8YBmnMwdKUUZjt4BPhWL03IVfcntyi1ijBXKEN7t3/no+5IuhZuPW7/n5q11clqs32xxW7PNSQscyhYerI2f+2xjVrVU5Q59M99XKvX5t527m9OOgHIULW3Wry5tXzWEs3OUfsnXQdS7f8VXOEqTMdd2HXan2oFQFU7Wi882V1DmofaQaFil6i9P2cY50Fq1etOvTIw2ukfBdDwZ1k3PRWuj62GKyfxuy+9Xldp9c9XJURe8grbh0psP1mEPpRDRW1Jtge11QjLf88EAGUBQSAAQB6CVP+Wu9Q9MkRKO6pVn68v0YLQOexLVpL1q3Goej3aWb0aVLGaazZtrnH3Xq+65gUzayTJai68VtVll0kNVd8Xf6cFk7xPfordXtiplxcd0HHjACekRrj63tVPM18aqrcf66lRHa7UwXIBRVSxH/9Uqr6yGq6gwmyHxqH26+c+q70Fev1CFWbVZLqks8m5D0Atm1Jl/avgCjkfc+v32mH+sh8cpg497SZTqx71rOfgPnhA85zsBEsDl32Q6mqgsbn6gnnKr/j4RZ31Ufx59dwPNej5f+Q/FOhKKOw6xa/VX1ckW0E0V0SUho8YoLl/Hqw3R3fWwKb2+7F4pOvj2Ru1+pRxEB9cRc06dtbrz/xOc8f30/N9ohVpvfa+RVb4xV64ZIYBrqy0S376XiAobB8qsf1k4ftQLk6iZI3qZ+0FACjjCAIBAPyoqobdh2pAi+rG0U6S1i9cpPhzzlVXxV79Ne6ktRRSJ1pjHxtsHWzMHNVe3cx6QDqvTV+t81kP6LIEVZCZY1IY7k1r9eirX2nGpmNKPGMcfJgFcxs00MBBA/Tek53V6XIOPK6ESxkFyLIpusveDpf9bSTErNFdSEc0Lz7VOPccElZPvaLMw890xW/xyisqj9+UirBOe79aqpGvrdXC+JM6bgbLjAPsyMbRGjVqsGaObu6jEHAhXUjQlNc/1oTFCdpx4rzSjANxV1gtdbi1s958ZoDGNvfdASIrOkEgXFlF6EMltp8sZB8CgPKOIBAAwIeqavybweobYwaAjmrNx59pux1/uXoqN9d/xNYyjtPd2p9kf6G3mFMLJx3WvPc+16RNxfDL/FYng8QqPvoPK1vD98lP4dQLx/TFgq/05KvzNei1FZq96aQ9/CgiWvcPqGffpqRlbqtq1XMMjbIFK6x4pwezXc52OHreDk6FVLIzgvJ1SqesO1RQNavAiA8dQmWVh0pLy6pdkylxg3HwaZybQ8KGmwecjaMVY/6f08e01Ps1zXxu5jTmPvtB5ulKFuwtZkVdp9MHNHvuEj360j80csp6Ldzntuq/1GzcRvf3sG9SPNK1Y/16TZjyiYa9+IkmLUnQfjPwFBKqXv06+qzBtCHNiSAYXTq7FlRhBBfzrHnlTFH7UIntJy+/D/lz+kw1ZwkAyjY+3gAAOVWorhZ3DFWvRlWNL+qHtOrDRdpVCspcuG67Xq2M4zv3ge0a/6b5hd45yHhxvh54c5U+tgoB58EJhASH5Dds5agST5nnoYq5vYi/FJ8+ooULlujv39vPrW6d+tZ5LhmXjEMVUyVVK3Jhax/2ObVcqtdSB6//36zfb3RvI4+pmq+E/LbDVqdOSHC4br8r3G7L04Gseh83tIr1OQ31kJvs4t5px5JzD4FL2qoNh8xhImFq1Vlq1aGuFXxKjN+aO5Ms87m5aqlTjN1UulVQSH5jaopxndwnEjR71mIttyKnQYpo4LvQddolJ0MnpFIhgzPntcksEL7kiB188FeD6VhNWXV8w5Lzn9L7bJr9v3K974LVa8Sd6nsl3ouFcaX3D7mUbB8quf1kAfuQl+a17OzA06eKb7AaAFxNBIEAANkqRCj2riG6xawBdPaAln/0xVUeApatUfVK1rnr2hs0pFU9tWp8eQVFN/9sH+6FNLpRE3tG5VET4pi+2GfeNkjNeg7S64Oaq5NTf0iqokatmmvMyAGa+YjX4UOfPpr5ZE+N6RqlZnUyg0fBimzeUt2utS8f//modZ7Ljp+VZB3duHTrvdn1jorNvh+d2cCc/28+vxoNNGTk3ZrYtVYxFtU2FGo7ZM7aZRwAxv5Gb49un70NzCmnu3bW6092Vze7xfLxlhNO5kAzvfBYbNbtXXWiNerhOzW8oT1EcPO3W50DfU/pmrfzhNKsIWHt1a2BeXCXqh0bzGFi3vZqw2HzuVVRp2HG9upjFg531sucbjq2pcY9fLfeHHaD3XbVZAYvg9Tq1tvzKdpcuHXqNmyA3n64q4bE1vMosmu8J2JvUiurkFaGko76nhZ9w1E7W0i1r9fTg/Ir0tterzw7QM8PNN5712Wvhzn9/5C2tezLp1Llcy6y72o7hYf3q107u8mvfak65bzvOvVvaQWZrffF6Ds1tnkxvweL4krvH7Jc+T5UcvvJIvShHJIUbfXt9kq40rPNAUAJuaZJk6a/OssAAC8XL3pWiC1bwrsO1+CW9rTu/p3RrgXztOaEfalmp+Ea2ia/+xgSV2n6P+OdC1de5XbDpYaxenNMM0X6+/kiPV3Hj+7XvA/itNqZ/jyHiPZ6/d+bq1HmcYenn3Zr0N88DwfCNerx32jgtXlkyHjfp18/Lehql5T26cwRvTVlhZb76VLdRgzWOJ8Hnuna9JGfoWeXwdWzj9673Z6GPQdz+vKvz+v2Pg3k8lqnUY//ztgGzgV/zOEg/7Uie1rnwm6HytEa93hHdQvzs829H8fJ1vB/sJ6h/Wu/1Pgl/kqZN9PEF2PVqkK63CHBCj60Uw9O9xUwMhjP7flxndUhj7eGO35tziLPbXtq7j3GNrWGFZbMULHIPv30+q2+g3r71/7D2BbOBVMh1qnbyKEaF+PrDWRLM/rPBKP/5J6tzXSDnn62qzr5erxcr63xXs2z4PZ5bVrgf/jnnx6bpRENk3Txh0fV+r28Q8V+33fG+2LTT9XV4bpgr213g57/o10cPtc2NWX2f6/3Un7bzua/r1zp/UOmK92HSm4/WbQ+lCmy90Ytv+1rKfVuPf9Ksxwzzl3YMs9ZAoCyhUwgAECWinnEPK66Qwe02vrl2XApQ2lpximz1o0pOFh1r2umcY/1VC9fWT5JmzVhzlZt8Kwn5FeyZv/tM0355ohduNRDmtut/fG79daHO5wWx9ebswqdev5/8/Z7N8VpQh4HNqbV7y/RlI3JOu7O+XjFxb1iqSYsNdYn8zmYtZSO7NWUvxoHncU53K+w28Eq4mps841OsdhMZjHrU8n6YvEGjyCBKV3L3/9cE748nOv2KUlHtPDDz/IIAJn26vMfzkshwXKZU83v9BMAMhnPbdIUs5Ct1+tj9sMzqdqxabOmLLwKs3x5SVz6pSZ5bw9/CrFOqxdutAtCe/VR8/abvlmrR/0GgEwHNHnaWn1x0C133sfdhh2anVnM1/O2ZqD3YIJm5FP/6z83t9dF47zS9d/rT34z/myr31+l2fGpcmf21UvmY9jvi2+M7lFaXOn9Q6Yr3YdKbj9ZtD5k+0XPtPnWOHcpcU90jgAQAJRlZAIBQB7KciZQeWJmAmX9AnzmiGZMW6EvcmT7VFGHnl017nazDoxxQP/VfD23wrkKQID5RVP/8L/qXdut03sf1d2zal7x6eJR/kTetlFLen+tSu479dpLzTXTac9EJhCAsopMIABAGXCDbr3OHgKQuGeDVwDIdF6b1qfKKmehIAXb5YMABKSKemJxP5l5YDWardCkm+xWoMAaHtE7Pb9WJUVry4rcASAAKMsIAgEAyoBflO4MHYhs3VNjYsM9CjubhWnba+Ljje1Zh9JPascW6woAgWpPtP64ppsuaq86DVynSQ2ddiA/lVM0e+QCRQe7dHrPbzR+jdMOAOUEw8EAIA8MBysdzOFgzfr1K8BMVunau2K5nvsqr1owZVV+hU59Kd6isbhCsopIX46SKzhdlj0w6nM9c+Nu6UJvzZzaXq/97FxR7rB/KB6/aNLj8zUk8ogu/jRST/xPA61yrvHGcDAAZRWZQACAMmHvkiV69MPd2mQWdrbmms6WlnZeifvMYp8LymkACEBhzJzdTzMT2ig5oZHeL7cBIBSfilr2Y7RO/zRSz0/3HwACgLKMTCAAyAOZQKWDNUU8AAClBJlAAMoqMoEAAKXeL8fjnSUAAK4uPpMAlGUEgQAApd4vx3bwpRsAcNWZn0XmZxIAlFUMBwOAPDAcDAAAAEB5QSYQAAAAAABAACAIBAAAAAAAEAAIAgEAAAAAAAQAgkAAAAAAAAABgCAQAAAAAABAACAIBAAAAAAAEAAIAgEAAAAAAAQAgkAAAAAAAAABgCAQAAAAAABAACAIBAAAAAAAEAAIAgEAAAAAAAQAgkAAAAAAAAABgCAQAAAAAABAACAIBAAAAAAAEAAIAgEAAAAAAAQAgkAAAAAAAAABgCAQAAAAAABAACAIBAAAAAAAEAAIAgEAAAAAAAQAgkAAAAAAAAABgCAQAAAAAABAACAIBAAAAAAAEAAIAgEAAAAAAAQAgkAAAAAAAAABgCAQAAAAAABAACAIBAAAAAAAEAAIAgEAAAAAAAQAgkAAAAAAAAABgCAQAAAAAABAACAIBAAAAAAAEAAIAgEAAAAAAAQAgkAAAAAAAAABgCAQAAAAAABAACAIBAAAAAAAEAAIAgEAAAAAAAQAgkAAAAAAAAABgCAQAAAAAABAACAIBAAAAAAAEAAIAgEAAAAAAAQAgkAAAAAAAAABgCAQAAAAAABAACAIBAAAAAAAEAAIAgEAAAAAAAQAgkAAAAAAAAABgCAQAAAAAABAACAIBAAAAAAAEAAIAgEAAAAAAAQAgkAAAAAAAAABgCAQAAAAAABAACAIBAAAAAAAEAAIAgEAAAAAAAQAgkAAAAAAAAABgCAQAAAAAABAuSf9fyfl6dzkc1FwAAAAAElFTkSuQmCC;" parent="1" vertex="1">
          <mxGeometry x="490" y="940" width="1153" height="494" as="geometry" />
        </mxCell>
        <mxCell id="uinDh51fRpMenqYTs6G2-4" value="&lt;div style=&quot;color: rgb(212, 212, 212); background-color: rgb(30, 30, 30); font-family: Consolas, &amp;quot;Courier New&amp;quot;, monospace; font-weight: normal; font-size: 24px; line-height: 32px;&quot;&gt;&lt;div&gt;&lt;span style=&quot;color: #569cd6;&quot;&gt;cmake_minimum_required&lt;/span&gt;&lt;span style=&quot;color: #d4d4d4;&quot;&gt;(VERSION 3.20)&lt;/span&gt;&lt;/div&gt;&lt;br&gt;&lt;div&gt;&lt;span style=&quot;color: #569cd6;&quot;&gt;project&lt;/span&gt;&lt;span style=&quot;color: #d4d4d4;&quot;&gt;(Dependencies)&lt;/span&gt;&lt;/div&gt;&lt;br&gt;&lt;div&gt;&lt;span style=&quot;color: #569cd6;&quot;&gt;enable_testing&lt;/span&gt;&lt;span style=&quot;color: #d4d4d4;&quot;&gt;()&lt;/span&gt;&lt;/div&gt;&lt;br&gt;&lt;div&gt;&lt;span style=&quot;color: #569cd6;&quot;&gt;list&lt;/span&gt;&lt;span style=&quot;color: #d4d4d4;&quot;&gt;(APPEND CMAKE_MODULE_PATH &lt;/span&gt;&lt;span style=&quot;color: #ce9178;&quot;&gt;&quot;${CMAKE_SOURCE_DIR}/cmake&quot;&lt;/span&gt;&lt;span style=&quot;color: #d4d4d4;&quot;&gt;)&lt;/span&gt;&lt;/div&gt;&lt;br&gt;&lt;div&gt;&lt;span style=&quot;color: #569cd6;&quot;&gt;set&lt;/span&gt;&lt;span style=&quot;color: #d4d4d4;&quot;&gt;(CMAKE_CXX_STANDARD 23)&lt;/span&gt;&lt;/div&gt;&lt;div&gt;&lt;span style=&quot;color: #569cd6;&quot;&gt;set&lt;/span&gt;&lt;span style=&quot;color: #d4d4d4;&quot;&gt;(CMAKE_CXX_STANDARD_REQUIRED &lt;/span&gt;&lt;span style=&quot;color: #569cd6;&quot;&gt;ON&lt;/span&gt;&lt;span style=&quot;color: #d4d4d4;&quot;&gt;)&lt;/span&gt;&lt;/div&gt;&lt;br&gt;&lt;div&gt;&lt;span style=&quot;color: #569cd6;&quot;&gt;add_subdirectory&lt;/span&gt;&lt;span style=&quot;color: #d4d4d4;&quot;&gt;(src)&lt;/span&gt;&lt;/div&gt;&lt;br&gt;&lt;div&gt;&lt;span style=&quot;color: #569cd6;&quot;&gt;add_executable&lt;/span&gt;&lt;span style=&quot;color: #d4d4d4;&quot;&gt;(rooster main.cpp)&lt;/span&gt;&lt;/div&gt;&lt;div&gt;&lt;span style=&quot;color: #569cd6;&quot;&gt;target_link_libraries&lt;/span&gt;&lt;span style=&quot;color: #d4d4d4;&quot;&gt;(rooster PRIVATE calculator)&lt;/span&gt;&lt;/div&gt;&lt;br&gt;&lt;div&gt;&lt;span style=&quot;color: #569cd6;&quot;&gt;add_subdirectory&lt;/span&gt;&lt;span style=&quot;color: #d4d4d4;&quot;&gt;(test)&lt;/span&gt;&lt;/div&gt;&lt;/div&gt;" style="text;whiteSpace=wrap;html=1;" parent="1" vertex="1">
          <mxGeometry x="2170" y="1480" width="770" height="560" as="geometry" />
        </mxCell>
        <mxCell id="uinDh51fRpMenqYTs6G2-7" value="&lt;font style=&quot;font-size: 33px;&quot;&gt;The root CMakeLists.txt&lt;/font&gt;" style="rounded=0;whiteSpace=wrap;html=1;" parent="1" vertex="1">
          <mxGeometry x="2230" y="1374" width="620" height="60" as="geometry" />
        </mxCell>
      </root>
    </mxGraphModel>
  </diagram>
</mxfile>
